<svg width="40" height="40" viewBox="0 0 40 40" fill="none" xmlns="http://www.w3.org/2000/svg">
<path d="M33.75 6.875H6.25C5.75272 6.875 5.27581 7.07254 4.92417 7.42417C4.57254 7.77581 4.375 8.25272 4.375 8.75V31.25C4.375 31.7473 4.57254 32.2242 4.92417 32.5758C5.27581 32.9275 5.75272 33.125 6.25 33.125H16.25C16.3811 33.1248 16.5089 33.0833 16.6152 33.0065C16.7215 32.9297 16.8009 32.8213 16.8422 32.6969L19.2516 25.4688L25.2328 23.0766C25.311 23.0451 25.3821 22.9982 25.4417 22.9386C25.5013 22.879 25.5483 22.8079 25.5797 22.7297L27.9688 16.7516L35.1938 14.3422C35.3188 14.3014 35.4278 14.2222 35.5052 14.1159C35.5827 14.0096 35.6246 13.8815 35.625 13.75V8.75C35.625 8.25272 35.4275 7.77581 35.0758 7.42417C34.7242 7.07254 34.2473 6.875 33.75 6.875ZM18.5172 24.4203C18.4331 24.4542 18.3574 24.506 18.2954 24.5721C18.2333 24.6383 18.1864 24.7171 18.1578 24.8031L15.8 31.875H6.25C6.08424 31.875 5.92527 31.8092 5.80806 31.6919C5.69085 31.5747 5.625 31.4158 5.625 31.25V26.6156L13.9328 18.3078C13.9909 18.2497 14.0598 18.2036 14.1357 18.1721C14.2115 18.1407 14.2929 18.1245 14.375 18.1245C14.4571 18.1245 14.5385 18.1407 14.6143 18.1721C14.6902 18.2036 14.7591 18.2497 14.8172 18.3078L20.2406 23.7313L18.5172 24.4203ZM34.375 13.3L27.3031 15.6578C27.2171 15.6864 27.1383 15.7333 27.0721 15.7954C27.006 15.8574 26.9542 15.9331 26.9203 16.0172L24.5187 22.0187L21.5031 23.2266L15.7016 17.4234C15.5274 17.2486 15.3204 17.1099 15.0925 17.0153C14.8646 16.9207 14.6202 16.872 14.3734 16.872C14.1267 16.872 13.8823 16.9207 13.6544 17.0153C13.4265 17.1099 13.2195 17.2486 13.0453 17.4234L5.625 24.8438V8.75C5.625 8.58424 5.69085 8.42527 5.80806 8.30806C5.92527 8.19085 6.08424 8.125 6.25 8.125H33.75C33.9158 8.125 34.0747 8.19085 34.1919 8.30806C34.3092 8.42527 34.375 8.58424 34.375 8.75V13.3ZM35.3656 18.5141C35.2854 18.4562 35.1925 18.4183 35.0947 18.4034C34.9969 18.3884 34.897 18.3969 34.8031 18.4281L31.0828 19.6672C30.9969 19.6961 30.9183 19.7434 30.8525 19.8057C30.7866 19.868 30.7351 19.9439 30.7016 20.0281L28.3578 25.8656L22.5203 28.2094C22.4361 28.2429 22.3602 28.2944 22.2979 28.3603C22.2355 28.4261 22.1883 28.5047 22.1594 28.5906L20.9203 32.3109C20.8891 32.4048 20.8806 32.5047 20.8956 32.6025C20.9105 32.7003 20.9484 32.7932 21.0063 32.8734C21.0641 32.9536 21.1402 33.019 21.2282 33.0641C21.3162 33.1091 21.4136 33.1327 21.5125 33.1328H33.75C34.2473 33.1328 34.7242 32.9353 35.0758 32.5836C35.4275 32.232 35.625 31.7551 35.625 31.2578V19.0203C35.6249 18.9214 35.6013 18.824 35.5562 18.736C35.5112 18.648 35.4458 18.5719 35.3656 18.5141ZM34.375 31.25C34.375 31.4158 34.3092 31.5747 34.1919 31.6919C34.0747 31.8092 33.9158 31.875 33.75 31.875H22.3875L23.2609 29.2531L29.0781 26.9266C29.1568 26.8951 29.2282 26.848 29.2881 26.7881C29.348 26.7282 29.3951 26.6568 29.4266 26.5781L31.7531 20.7609L34.375 19.8875V31.25Z" fill="black"/>
<path d="M33.75 6.875H6.25C5.75272 6.875 5.27581 7.07254 4.92417 7.42417C4.57254 7.77581 4.375 8.25272 4.375 8.75V31.25C4.375 31.7473 4.57254 32.2242 4.92417 32.5758C5.27581 32.9275 5.75272 33.125 6.25 33.125H16.25C16.3811 33.1248 16.5089 33.0833 16.6152 33.0065C16.7215 32.9297 16.8009 32.8213 16.8422 32.6969L19.2516 25.4688L25.2328 23.0766C25.311 23.0451 25.3821 22.9982 25.4417 22.9386C25.5013 22.879 25.5483 22.8079 25.5797 22.7297L27.9688 16.7516L35.1938 14.3422C35.3188 14.3014 35.4278 14.2222 35.5052 14.1159C35.5827 14.0096 35.6246 13.8815 35.625 13.75V8.75C35.625 8.25272 35.4275 7.77581 35.0758 7.42417C34.7242 7.07254 34.2473 6.875 33.75 6.875ZM18.5172 24.4203C18.4331 24.4542 18.3574 24.506 18.2954 24.5721C18.2333 24.6383 18.1864 24.7171 18.1578 24.8031L15.8 31.875H6.25C6.08424 31.875 5.92527 31.8092 5.80806 31.6919C5.69085 31.5747 5.625 31.4158 5.625 31.25V26.6156L13.9328 18.3078C13.9909 18.2497 14.0598 18.2036 14.1357 18.1721C14.2115 18.1407 14.2929 18.1245 14.375 18.1245C14.4571 18.1245 14.5385 18.1407 14.6143 18.1721C14.6902 18.2036 14.7591 18.2497 14.8172 18.3078L20.2406 23.7313L18.5172 24.4203ZM34.375 13.3L27.3031 15.6578C27.2171 15.6864 27.1383 15.7333 27.0721 15.7954C27.006 15.8574 26.9542 15.9331 26.9203 16.0172L24.5187 22.0187L21.5031 23.2266L15.7016 17.4234C15.5274 17.2486 15.3204 17.1099 15.0925 17.0153C14.8646 16.9207 14.6202 16.872 14.3734 16.872C14.1267 16.872 13.8823 16.9207 13.6544 17.0153C13.4265 17.1099 13.2195 17.2486 13.0453 17.4234L5.625 24.8438V8.75C5.625 8.58424 5.69085 8.42527 5.80806 8.30806C5.92527 8.19085 6.08424 8.125 6.25 8.125H33.75C33.9158 8.125 34.0747 8.19085 34.1919 8.30806C34.3092 8.42527 34.375 8.58424 34.375 8.75V13.3ZM35.3656 18.5141C35.2854 18.4562 35.1925 18.4183 35.0947 18.4034C34.9969 18.3884 34.897 18.3969 34.8031 18.4281L31.0828 19.6672C30.9969 19.6961 30.9183 19.7434 30.8525 19.8057C30.7866 19.868 30.7351 19.9439 30.7016 20.0281L28.3578 25.8656L22.5203 28.2094C22.4361 28.2429 22.3602 28.2944 22.2979 28.3603C22.2355 28.4261 22.1883 28.5047 22.1594 28.5906L20.9203 32.3109C20.8891 32.4048 20.8806 32.5047 20.8956 32.6025C20.9105 32.7003 20.9484 32.7932 21.0063 32.8734C21.0641 32.9536 21.1402 33.019 21.2282 33.0641C21.3162 33.1091 21.4136 33.1327 21.5125 33.1328H33.75C34.2473 33.1328 34.7242 32.9353 35.0758 32.5836C35.4275 32.232 35.625 31.7551 35.625 31.2578V19.0203C35.6249 18.9214 35.6013 18.824 35.5562 18.736C35.5112 18.648 35.4458 18.5719 35.3656 18.5141ZM34.375 31.25C34.375 31.4158 34.3092 31.5747 34.1919 31.6919C34.0747 31.8092 33.9158 31.875 33.75 31.875H22.3875L23.2609 29.2531L29.0781 26.9266C29.1568 26.8951 29.2282 26.848 29.2881 26.7881C29.348 26.7282 29.3951 26.6568 29.4266 26.5781L31.7531 20.7609L34.375 19.8875V31.25Z" fill="url(#paint0_linear_1948_120)"/>
<defs>
<linearGradient id="paint0_linear_1948_120" x1="20" y1="6.875" x2="20" y2="33.1328" gradientUnits="userSpaceOnUse">
<stop stop-color="#9617C7"/>
<stop offset="1" stop-color="#DEBC00"/>
</linearGradient>
</defs>
</svg>
