<svg width="133" height="84" viewBox="0 0 133 84" fill="none" xmlns="http://www.w3.org/2000/svg">
<rect width="133" height="84" rx="8" fill="white"/>
<path d="M29.9797 12H103.02C105.9 12 108.237 14.3372 108.237 17.2197V66.7829C108.237 69.6628 105.9 72 103.02 72H29.9797C27.0972 72.0003 24.7626 69.6628 24.7626 66.7832V17.2197C24.7626 14.3372 27.0998 12 29.9797 12Z" fill="#26A6D1"/>
<path d="M38.2229 32.8687L29.9797 51.1107H39.848L41.0714 48.2022H43.8677L45.0911 51.1107H55.9533V48.8908L56.9212 51.1107H62.54L63.5079 48.8439V51.1107H86.0984L88.8453 48.2777L91.4173 51.1107L103.02 51.1342L94.751 42.0406L103.02 32.8687H91.5973L88.9234 35.6494L86.4323 32.8687H61.8568L59.7465 37.5771L57.5867 32.8687H47.739V35.0131L46.6435 32.8687H38.2229ZM40.1324 35.4591H44.9426L50.4104 47.8291V35.4591H55.6798L59.903 44.3283L63.7952 35.4591H69.0383V48.5489H65.8479L65.8219 38.2918L61.1707 48.5489H58.3168L53.6396 38.2918V48.5489H47.0764L45.8321 45.6144H39.1098L37.8681 48.5463H34.3516L40.1324 35.4591ZM71.9571 35.4591H84.9297L88.8973 39.7449L92.9929 35.4591H96.9606L90.9321 42.0381L96.9606 48.5412H92.813L88.8453 44.2056L84.7288 48.5412H71.9571V35.4591ZM42.4724 37.6738L40.2577 42.9015H44.6846L42.4724 37.6738ZM75.1606 38.1694V40.5589H82.2377V43.2222H75.1606V45.8309H83.0986L86.787 41.9886L83.2551 38.1671H75.1606V38.1694Z" fill="white"/>
</svg>
