<svg width="133" height="84" viewBox="0 0 133 84" fill="none" xmlns="http://www.w3.org/2000/svg">
<rect width="133" height="84" rx="8" fill="white"/>
<path d="M30.8153 56.9999C39.0105 57.0391 46.4906 50.3129 46.4906 42.1303C46.4906 33.1821 39.0105 26.997 30.8153 27H23.7624C15.469 26.997 8.64276 33.184 8.64276 42.1303C8.64276 50.3147 15.469 57.0391 23.7624 56.9999H30.8153Z" fill="#0079BE"/>
<path d="M23.7957 28.2399C16.2175 28.2422 10.0766 34.3881 10.0748 41.9732C10.0766 49.557 16.2174 55.7022 23.7957 55.7046C31.3758 55.7022 37.5179 49.557 37.519 41.9732C37.5179 34.3881 31.3758 28.2422 23.7957 28.2399ZM15.0984 41.9732C15.1055 38.2667 17.4192 35.106 20.6819 33.85V50.0945C17.4192 48.8392 15.1055 45.6803 15.0984 41.9732ZM26.9084 50.0981V33.8494C30.1722 35.1024 32.4895 38.2649 32.4954 41.9732C32.4895 45.6826 30.1722 48.8427 26.9084 50.0981Z" fill="white"/>
<path d="M51.2966 33.4542C51.2966 32.0351 50.5571 32.1285 49.8479 32.1131V31.703C50.4625 31.7334 51.0925 31.7334 51.7083 31.7334C52.3705 31.7334 53.2694 31.703 54.4366 31.703C58.519 31.703 60.7423 34.4316 60.7423 37.2255C60.7423 38.788 59.8285 42.716 54.2468 42.716C53.4431 42.716 52.7012 42.685 51.9605 42.685C51.2513 42.685 50.5571 42.7005 49.8478 42.716V42.3065C50.7932 42.2112 51.2513 42.1797 51.2966 41.1065L51.2966 33.4542ZM52.8423 40.8547C52.8423 42.0696 53.7103 42.2112 54.4825 42.2112C57.8891 42.2112 59.0075 39.6392 59.0075 37.288C59.0075 34.3386 57.1151 32.2089 54.0726 32.2089C53.4253 32.2089 53.1279 32.2553 52.8423 32.272L52.8423 40.8547Z" fill="#211E1F"/>
<path d="M61.2955 42.3065H61.5942C62.035 42.3065 62.351 42.3065 62.351 41.7845V37.5095C62.351 36.8162 62.1148 36.7197 61.5312 36.406V36.153C62.2719 35.9304 63.156 35.6328 63.2178 35.5852C63.3291 35.5221 63.4231 35.5054 63.5022 35.5054C63.5802 35.5054 63.6129 35.6006 63.6129 35.7274V41.7845C63.6129 42.3065 63.9597 42.3065 64.4011 42.3065H64.6689V42.7167C64.1322 42.7167 63.5801 42.6852 63.0138 42.6852C62.4462 42.6852 61.878 42.7007 61.2956 42.7167V42.3065H61.2955ZM62.9822 33.0762C62.5717 33.0762 62.21 32.6977 62.21 32.2875C62.21 31.8923 62.5884 31.5286 62.9822 31.5286C63.3909 31.5286 63.755 31.8614 63.755 32.2875C63.755 32.7137 63.407 33.0762 62.9822 33.0762Z" fill="#211E1F"/>
<path d="M66.1669 37.6036C66.1669 37.0202 65.9925 36.8631 65.2531 36.5631V36.2638C65.9307 36.0429 66.5763 35.8376 67.3335 35.5054C67.3805 35.5054 67.4269 35.5376 67.4269 35.6632V36.6893C68.3271 36.0429 69.0999 35.5054 70.1576 35.5054C71.4962 35.5054 71.9691 36.4839 71.9691 37.7142V41.7845C71.9691 42.3065 72.316 42.3065 72.758 42.3065H73.0419V42.7166C72.4885 42.7166 71.9371 42.6852 71.3707 42.6852C70.8025 42.6852 70.2343 42.7006 69.6673 42.7166V42.3065H69.9505C70.3931 42.3065 70.7067 42.3065 70.7067 41.7845V37.6993C70.7067 36.7988 70.1576 36.3577 69.2574 36.3577C68.7536 36.3577 67.9492 36.7679 67.4268 37.1154V41.7844C67.4268 42.3065 67.7754 42.3065 68.2176 42.3065H68.5007V42.7166C67.9492 42.7166 67.3965 42.685 66.829 42.685C66.2619 42.685 65.6933 42.7006 65.1262 42.7166V42.3065H65.4106C65.852 42.3065 66.1668 42.3065 66.1668 41.7844V37.6036H66.1669Z" fill="#211E1F"/>
<path d="M74.2406 38.3618C74.2078 38.5042 74.2078 38.7404 74.2406 39.2773C74.3335 40.7755 75.2978 42.0059 76.5572 42.0059C77.4252 42.0059 78.1046 41.5327 78.6871 40.9494L78.9072 41.1708C78.1814 42.1327 77.283 42.9529 75.9908 42.9529C73.4832 42.9529 72.9786 40.5225 72.9786 39.5137C72.9786 36.4208 75.0597 35.5053 76.1627 35.5053C77.4406 35.5053 78.8132 36.3095 78.8281 37.9821C78.8281 38.0779 78.8281 38.1714 78.8132 38.2672L78.6704 38.3618H74.2406ZM77.032 37.8565C77.4252 37.8565 77.4718 37.6512 77.4718 37.4625C77.4718 36.6577 76.9833 36.0107 76.0998 36.0107C75.139 36.0107 74.4767 36.7196 74.2876 37.8565H77.032Z" fill="#211E1F"/>
<path d="M79.1911 42.3065H79.6171C80.0572 42.3065 80.3726 42.3065 80.3726 41.7844V37.3517C80.3726 36.863 79.7902 36.7678 79.5528 36.6416V36.4059C80.704 35.916 81.3352 35.5053 81.4786 35.5053C81.572 35.5053 81.6184 35.5529 81.6184 35.7113V37.1309H81.6517C82.0449 36.516 82.7083 35.5053 83.6692 35.5053C84.0635 35.5053 84.5675 35.7732 84.5675 36.3416C84.5675 36.7678 84.2688 37.1476 83.8275 37.1476C83.3366 37.1476 83.3366 36.7678 82.7857 36.7678C82.5174 36.7678 81.6351 37.1309 81.6351 38.0779V41.7844C81.6351 42.3065 81.9498 42.3065 82.3918 42.3065H83.2741V42.7166C82.4067 42.7005 81.7469 42.6851 81.0675 42.6851C80.4215 42.6851 79.7587 42.7006 79.1912 42.7166L79.1911 42.3065Z" fill="#211E1F"/>
<path d="M85.2617 40.5225C85.467 41.5642 86.0971 42.4482 87.2488 42.4482C88.1769 42.4482 88.5243 41.8803 88.5243 41.328C88.5243 39.4661 85.088 40.0655 85.088 37.5256C85.088 36.6417 85.7982 35.5054 87.5319 35.5054C88.0359 35.5054 88.7134 35.6482 89.328 35.9643L89.4399 37.5721H89.0764C88.9193 36.5792 88.3679 36.0108 87.3576 36.0108C86.727 36.0108 86.1285 36.3739 86.1285 37.0519C86.1285 38.8995 89.7861 38.3298 89.7861 40.8066C89.7861 41.8477 88.9502 42.953 87.0738 42.953C86.4432 42.953 85.7025 42.7322 85.151 42.4173L84.9773 40.6025L85.2617 40.5225Z" fill="#211E1F"/>
<path d="M104.024 34.5589H103.63C103.33 32.7136 102.022 31.9714 100.256 31.9714C98.4419 31.9714 95.8087 33.1856 95.8087 36.9719C95.8087 40.1612 98.0807 42.448 100.508 42.448C102.069 42.448 103.363 41.3754 103.678 39.7184L104.04 39.8124L103.678 42.1159C103.016 42.5272 101.234 42.9529 100.192 42.9529C96.5036 42.9529 94.1708 40.5702 94.1708 37.0202C94.1708 33.7857 97.0556 31.4654 100.146 31.4654C101.422 31.4654 102.652 31.8773 103.866 32.3035L104.024 34.5589Z" fill="#211E1F"/>
<path d="M104.592 42.3065H104.891C105.333 42.3065 105.65 42.3065 105.65 41.7844V32.9976C105.65 31.9715 105.413 31.9399 104.813 31.7666V31.5143C105.444 31.3096 106.106 31.025 106.437 30.8352C106.609 30.7411 106.736 30.6613 106.783 30.6613C106.879 30.6613 106.911 30.7566 106.911 30.8833V41.7844C106.911 42.3065 107.257 42.3065 107.699 42.3065H107.965V42.7166C107.431 42.7166 106.879 42.6851 106.311 42.6851C105.744 42.6851 105.177 42.7006 104.592 42.7166V42.3065H104.592Z" fill="#211E1F"/>
<path d="M114.716 41.8476C114.716 42.1327 114.889 42.1481 115.156 42.1481C115.346 42.1481 115.582 42.1327 115.788 42.1327V42.4648C115.109 42.5273 113.816 42.8589 113.516 42.9529L113.437 42.9052V41.6285C112.492 42.4011 111.766 42.9529 110.646 42.9529C109.794 42.9529 108.912 42.4011 108.912 41.0767V37.0362C108.912 36.6261 108.849 36.2314 107.967 36.1529V35.8529C108.536 35.8374 109.794 35.7427 110 35.7427C110.175 35.7427 110.175 35.8529 110.175 36.1999V40.2695C110.175 40.7439 110.175 42.1004 111.546 42.1004C112.082 42.1004 112.791 41.6903 113.453 41.1397V36.8933C113.453 36.579 112.696 36.4058 112.13 36.2474V35.9635C113.547 35.8682 114.432 35.7426 114.588 35.7426C114.716 35.7426 114.716 35.8528 114.716 36.0272L114.716 41.8476Z" fill="#211E1F"/>
<path d="M117.853 36.6417C118.483 36.1053 119.335 35.5054 120.203 35.5054C122.032 35.5054 123.135 37.1006 123.135 38.819C123.135 40.8857 121.622 42.9529 119.366 42.9529C118.199 42.9529 117.585 42.5737 117.174 42.4011L116.702 42.763L116.372 42.5904C116.512 41.6594 116.592 40.744 116.592 39.7821V32.9976C116.592 31.9715 116.354 31.9399 115.755 31.7666V31.5143C116.388 31.3096 117.048 31.025 117.38 30.8351C117.553 30.741 117.679 30.6613 117.728 30.6613C117.822 30.6613 117.853 30.7566 117.853 30.8833V36.6416H117.853V36.6417ZM117.853 40.9327C117.853 41.5327 118.42 42.5434 119.477 42.5434C121.164 42.5434 121.873 40.8857 121.873 39.481C121.873 37.7774 120.582 36.3578 119.351 36.3578C118.767 36.3578 118.279 36.737 117.853 37.1006L117.853 40.9327Z" fill="#211E1F"/>
<path d="M49.8299 51.8898H49.9507C50.2588 51.8898 50.5849 51.8482 50.5849 51.4011V46.9035C50.5849 46.4558 50.2588 46.4136 49.9507 46.4136H49.8299V46.1559C50.1648 46.1559 50.6795 46.1898 51.1013 46.1898C51.5296 46.1898 52.0436 46.1559 52.447 46.1559V46.4136H52.3262C52.0186 46.4136 51.6921 46.4559 51.6921 46.9035V51.4011C51.6921 51.8482 52.0186 51.8898 52.3262 51.8898H52.447V52.1488C52.0353 52.1488 51.5195 52.1148 51.0917 52.1148C50.6712 52.1148 50.1648 52.1488 49.8299 52.1488V51.8898Z" fill="#211E1F"/>
<path d="M52.4472 52.1851C52.0325 52.1851 51.5186 52.1505 51.0914 52.1505C50.6719 52.1505 50.1675 52.1851 49.8301 52.1851H49.7933V52.1482V51.8904V51.8529H49.8301H49.9503C50.2614 51.8458 50.5447 51.8208 50.5476 51.4011V46.9035C50.5447 46.4838 50.2615 46.4558 49.9503 46.4499H49.7933V46.4137V46.1178H49.8301C50.1675 46.1178 50.6815 46.1517 51.1009 46.1517C51.528 46.1517 52.0415 46.1178 52.4472 46.1178H52.4853V46.1571V46.4499H52.4472H52.327C52.0159 46.4559 51.7309 46.4838 51.7291 46.9035V51.4011C51.7309 51.8208 52.0158 51.8458 52.327 51.8529H52.4853V51.8904V52.1851H52.4472ZM52.4103 52.1118V51.9285H52.3271C52.0207 51.9285 51.656 51.8755 51.6542 51.4011V46.9035C51.6559 46.4291 52.0206 46.3755 52.3271 46.3755H52.4103V46.1934C52.0141 46.1934 51.5173 46.2267 51.1009 46.2267C50.6933 46.2267 50.2001 46.1957 49.8682 46.1934V46.3755H49.9503C50.2561 46.3755 50.622 46.4291 50.622 46.9035V51.4011C50.622 51.8755 50.2561 51.9285 49.9503 51.9285H49.8682V52.1118C50.2001 52.1082 50.685 52.0773 51.0914 52.0773C51.509 52.0773 52.0058 52.1094 52.4103 52.1118Z" fill="#211E1F"/>
<path d="M58.3413 50.4564L58.3585 50.4398V47.2207C58.3585 46.516 57.8689 46.4136 57.6119 46.4136H57.4226V46.1558C57.8266 46.1558 58.221 46.1897 58.6238 46.1897C58.9754 46.1897 59.3288 46.1558 59.6798 46.1558V46.4136H59.5513C59.1902 46.4136 58.7868 46.482 58.7868 47.5035V51.4106C58.7868 51.7106 58.7957 52.0106 58.8379 52.2767H58.5114L54.094 47.3488V50.8862C54.094 51.6333 54.2386 51.8898 54.9001 51.8898H55.0452V52.1487C54.677 52.1487 54.3087 52.1148 53.9392 52.1148C53.5543 52.1148 53.1594 52.1487 52.7726 52.1487V51.8898H52.8928C53.4848 51.8898 53.6645 51.4874 53.6645 50.8011V47.1851C53.6645 46.7047 53.2689 46.4136 52.8845 46.4136H52.7727V46.1559C53.0987 46.1559 53.4331 46.1898 53.7585 46.1898C54.0161 46.1898 54.2654 46.1559 54.5223 46.1559L58.3413 50.4564Z" fill="#211E1F"/>
<path d="M58.8377 52.3142L58.4838 52.301L54.13 47.4458V50.8862C54.1401 51.6327 54.2538 51.8446 54.8999 51.8529H55.0837V51.8898V52.185H55.0456C54.6744 52.185 54.3049 52.1505 53.939 52.1505C53.5547 52.1505 53.1608 52.185 52.7717 52.185H52.7342V52.1481V51.8529H52.7717H52.8925C53.4595 51.8499 53.6213 51.4856 53.6278 50.8011V47.1857C53.6266 46.7285 53.2518 46.4511 52.8842 46.4499H52.7342V46.4118V46.119H52.7717C53.0995 46.119 53.4356 46.1517 53.7575 46.1517C54.0127 46.1517 54.2614 46.119 54.5505 46.1315L58.3212 50.3786V47.2214C58.3164 46.5381 57.8614 46.456 57.6114 46.4499H57.3842V46.4118V46.119H57.4223C57.8275 46.119 58.2224 46.1517 58.6234 46.1517C58.9727 46.1517 59.3243 46.119 59.6788 46.119H59.7163V46.1559V46.4499H59.6788H59.5509C59.1969 46.4601 58.8334 46.491 58.8234 47.5034V51.41C58.8234 51.71 58.8323 52.01 58.874 52.2701L58.8823 52.3141H58.8377V52.3142ZM58.5118 52.2385H58.7955C58.7569 51.9808 58.7503 51.6951 58.7503 51.41V47.5034C58.7503 46.4731 59.1817 46.3755 59.5511 46.3755H59.6415V46.1933C59.3036 46.1957 58.9645 46.2267 58.6237 46.2267C58.231 46.2267 57.8491 46.1957 57.4606 46.1933L57.46 46.3755H57.6117C57.8752 46.3755 58.3958 46.4933 58.3958 47.2214L58.3839 50.4653L58.3667 50.4833L58.3376 50.51L54.5222 46.1933C54.2676 46.1933 54.0189 46.2267 53.7577 46.2267C53.443 46.2267 53.1211 46.1957 52.81 46.1933L52.8082 46.3755H52.8844C53.2871 46.3755 53.7006 46.6832 53.7006 47.1856V50.801C53.7006 51.4873 53.5096 51.9266 52.8927 51.929L52.81 51.9266V52.1117C53.1818 52.1081 53.5638 52.0772 53.9391 52.0772C54.2973 52.0772 54.6537 52.1082 55.0082 52.1117V51.929H54.9C54.2247 51.9266 54.057 51.6326 54.0563 50.8861V47.2522L58.5118 52.2385ZM58.3213 50.4392V50.4362L58.3142 50.4302L58.3213 50.4392Z" fill="#211E1F"/>
<path d="M60.964 46.5844C60.3197 46.5844 60.2953 46.7392 60.1668 47.3653H59.9092C59.9431 47.1255 59.9859 46.8856 60.0121 46.6356C60.0465 46.3951 60.0632 46.1558 60.0632 45.907H60.2697C60.3387 46.1648 60.5529 46.1558 60.7855 46.1558H65.2112C65.4432 46.1558 65.6574 46.1475 65.6753 45.8892L65.8799 45.9237C65.8465 46.1558 65.812 46.3874 65.7859 46.6195C65.7704 46.8511 65.7704 47.0832 65.7704 47.3142L65.5122 47.41C65.4943 47.0927 65.4515 46.5844 64.8774 46.5844H63.4704V51.1522C63.4704 51.8141 63.7709 51.8898 64.1813 51.8898H64.3449V52.1487C64.0106 52.1487 63.4092 52.1148 62.9468 52.1148C62.4323 52.1148 61.8308 52.1487 61.4958 52.1487V51.8898H61.6594C62.1324 51.8898 62.3715 51.8475 62.3715 51.1701V46.5844H60.964Z" fill="#211E1F"/>
<path d="M64.3464 52.185C64.0084 52.185 63.4081 52.1505 62.947 52.1505C62.433 52.1505 61.8328 52.185 61.496 52.185H61.4603V52.1487V51.8529H61.496H61.6596C62.1326 51.8416 62.3229 51.8356 62.3336 51.1701V46.622H60.9641V46.5844V46.5463H62.4081V51.1701C62.4081 51.8588 62.1308 51.9284 61.6596 51.929H61.5335V52.11C61.872 52.1083 62.4491 52.0772 62.9471 52.0772C63.3945 52.0772 63.968 52.1083 64.3071 52.11V51.929H64.1816C63.7669 51.9284 63.4331 51.8267 63.4331 51.1523V46.5463H64.8776C65.4535 46.5487 65.5285 47.0386 65.5475 47.357L65.7326 47.2886C65.7326 47.0648 65.7337 46.8404 65.7492 46.6142C65.7742 46.3933 65.8057 46.1743 65.8379 45.9553L65.7069 45.9332C65.6671 46.1832 65.4261 46.1957 65.2101 46.1933H60.7856H60.741C60.5393 46.1933 60.3186 46.1838 60.2419 45.944H60.1003C60.099 46.1815 60.0824 46.4119 60.0496 46.6404C60.0246 46.8761 59.9854 47.1029 59.9533 47.3297H60.1371C60.2501 46.7314 60.324 46.5374 60.964 46.5464V46.5845V46.622C60.3298 46.6333 60.343 46.7404 60.2031 47.3749L60.1966 47.4041H60.1669H59.8665L59.8712 47.3595C59.9057 47.119 59.9492 46.8797 59.9747 46.6297C60.0104 46.3916 60.0271 46.1535 60.0271 45.907V45.8695H60.0634H60.299L60.3049 45.8963C60.3638 46.113 60.5227 46.1142 60.741 46.1178H60.7856H65.2101C65.4494 46.1142 65.623 46.1106 65.6379 45.8861L65.6415 45.8457L65.6801 45.854L65.9223 45.8922L65.9169 45.9297C65.8824 46.1594 65.8485 46.3916 65.8235 46.6219C65.8063 46.8505 65.8063 47.0826 65.8063 47.3142V47.341L65.7825 47.3505L65.4785 47.4611L65.4761 47.4111C65.4535 47.0885 65.4196 46.6219 64.8776 46.6219H63.508V51.1522C63.5158 51.7998 63.7727 51.8445 64.1814 51.8528H64.3825V51.8897V52.1849L64.3464 52.185Z" fill="#211E1F"/>
<path d="M66.1543 51.8898H66.2751C66.5833 51.8898 66.9098 51.8482 66.9098 51.4011V46.9035C66.9098 46.4558 66.5833 46.4136 66.2751 46.4136H66.1543V46.1559C66.6766 46.1559 67.5703 46.1898 68.2895 46.1898C69.0118 46.1898 69.9024 46.1559 70.4853 46.1559C70.4712 46.5243 70.4789 47.0922 70.5044 47.469L70.2456 47.538C70.2046 46.9803 70.1016 46.5345 69.2003 46.5345H68.0087V48.7827H69.0285C69.543 48.7827 69.6555 48.4916 69.706 48.0268H69.9631C69.9465 48.3631 69.9375 48.6977 69.9375 49.0322C69.9375 49.359 69.9464 49.6846 69.9631 50.0107L69.706 50.0619C69.6555 49.5471 69.6294 49.2125 69.0367 49.2125H68.0088V51.2119C68.0088 51.7708 68.5043 51.7708 69.0541 51.7708C70.0838 51.7708 70.5378 51.7012 70.7954 50.7238L71.0358 50.7827C70.9233 51.2387 70.821 51.6928 70.7449 52.1488C70.1951 52.1488 69.2081 52.1148 68.4371 52.1148C67.6636 52.1148 66.6435 52.1488 66.1543 52.1488V51.8898Z" fill="#211E1F"/>
<path d="M70.7441 52.185C70.1932 52.185 69.2068 52.1499 68.4364 52.1499C67.6636 52.1499 66.6438 52.185 66.1542 52.185H66.118V52.1487V51.8898V51.8529H66.1542H66.2744C66.5855 51.8481 66.8675 51.8207 66.8718 51.4011V46.9034C66.8676 46.4844 66.5855 46.4564 66.2744 46.4499H66.118V46.4136V46.119H66.1542C66.6778 46.119 67.5702 46.1517 68.2894 46.1517C69.011 46.1517 69.9011 46.119 70.4853 46.119H70.524L70.5222 46.1571C70.5162 46.2862 70.5139 46.4386 70.5139 46.6005C70.5139 46.8975 70.5221 47.2219 70.5395 47.4666L70.5406 47.4976L70.5121 47.5059L70.2105 47.5845L70.2087 47.5405C70.1582 46.9833 70.0838 46.5792 69.2004 46.5708H68.0444L68.0432 48.744H69.0285C69.5223 48.7393 69.6108 48.4863 69.6692 48.0238L69.6722 47.9899H69.7055H70.0012L70.0006 48.0285C69.984 48.363 69.9732 48.6975 69.9732 49.0321C69.9732 49.3571 69.984 49.6827 70.0006 50.0094L70.0012 50.0399L69.9703 50.0469L69.6722 50.1065L69.6692 50.066C69.6103 49.5422 69.6061 49.2553 69.0361 49.2488L68.0444 49.2481V51.2118C68.0451 51.7332 68.4947 51.7303 69.054 51.7332C70.0868 51.7273 70.5009 51.6774 70.7597 50.713L70.7681 50.6785L70.8043 50.685L71.0792 50.7558L71.0709 50.7916C70.9603 51.2463 70.8573 51.6999 70.7805 52.1546L70.7734 52.185H70.7441ZM70.7126 52.11C70.787 51.6772 70.8851 51.2428 70.9905 50.8106L70.8209 50.7677C70.5639 51.7285 70.0664 51.8141 69.0539 51.8077C68.5137 51.8077 67.9723 51.8077 67.9699 51.2118V49.1749H69.0361C69.6351 49.1683 69.6965 49.5302 69.7387 50.0189L69.9244 49.9803C69.9076 49.6642 69.9 49.3469 69.9 49.032C69.9 48.7088 69.9076 48.3874 69.9244 48.0642H69.7387C69.6911 48.5112 69.5513 48.8255 69.0284 48.8195H67.9699V46.4957H69.2004C70.0928 46.4897 70.2408 46.9505 70.2789 47.4904L70.464 47.4404C70.4492 47.1981 70.4389 46.8874 70.4389 46.6005C70.4389 46.4535 70.4425 46.3148 70.4473 46.1933C69.8643 46.1957 68.9957 46.2267 68.2895 46.2267C67.5845 46.2267 66.7165 46.1957 66.1912 46.1933V46.3755H66.2744C66.5802 46.3755 66.9455 46.429 66.9467 46.9034V51.4011C66.9455 51.8743 66.5802 51.9267 66.2744 51.9291H66.1912V52.11C66.6916 52.1094 67.6827 52.0773 68.4364 52.0773C69.1931 52.0773 70.1593 52.1094 70.7126 52.11Z" fill="#211E1F"/>
<path d="M72.1936 47.0654C72.1936 46.4392 71.851 46.4136 71.5838 46.4136H71.4297V46.1553C71.7045 46.1553 72.2358 46.1898 72.7594 46.1898C73.274 46.1898 73.6863 46.1553 74.1403 46.1553C75.2206 46.1553 76.1827 46.4475 76.1827 47.6678C76.1827 48.4386 75.6681 48.9112 74.9904 49.1785L76.4569 51.3749C76.6972 51.738 76.868 51.8398 77.2892 51.8897V52.1487C77.0061 52.1487 76.7311 52.1148 76.4485 52.1148C76.1827 52.1148 75.9072 52.1487 75.6423 52.1487C74.982 51.2814 74.4145 50.3541 73.857 49.366H73.2925V51.2041C73.2925 51.866 73.6001 51.8898 73.9944 51.8898H74.1491V52.1488C73.6589 52.1488 73.1634 52.1148 72.6737 52.1148C72.2615 52.1148 71.858 52.1488 71.4297 52.1488V51.8898H71.5838C71.9027 51.8898 72.1936 51.7457 72.1936 51.4273V47.0654ZM73.2924 49.057H73.7113C74.5697 49.057 75.0319 48.7309 75.0319 47.7178C75.0319 46.9547 74.5436 46.4648 73.7791 46.4648C73.5215 46.4648 73.412 46.4916 73.2923 46.4993V49.057H73.2924Z" fill="#211E1F"/>
<path d="M77.2892 52.1851C77.0018 52.1851 76.7288 52.1505 76.4468 52.1505C76.185 52.1505 75.9113 52.1851 75.6121 52.1708C74.9541 51.3071 74.3901 50.3851 73.8356 49.4041H73.3287V51.203C73.3376 51.8488 73.597 51.8435 73.9939 51.853H74.186V51.8899V52.1851H74.1479C73.6577 52.1851 73.1598 52.1506 72.6725 52.1506C72.2625 52.1506 71.8604 52.1851 71.4296 52.1851H71.3921V52.1482V51.853H71.4296H71.5837C71.893 51.8512 72.1537 51.7167 72.1549 51.4274V47.0656C72.1484 46.456 71.8503 46.4596 71.5837 46.4507H71.3921V46.4138V46.118H71.4296C71.7075 46.118 72.237 46.1518 72.7593 46.1518C73.2715 46.1518 73.6839 46.118 74.1408 46.118C75.2218 46.1203 76.2177 46.4191 76.2206 47.6656C76.2206 48.4412 75.7084 48.925 75.0462 49.1953L76.4877 51.3548C76.7276 51.7107 76.8769 51.7995 77.2945 51.853L77.326 51.8577V51.8899V52.1851H77.2892V52.1851ZM73.2913 49.3291H73.8778L73.888 49.3481C74.4472 50.3344 75.0105 51.2606 75.6424 52.1118C75.9042 52.1118 76.1796 52.0767 76.4468 52.0767C76.721 52.0767 76.9851 52.1064 77.2522 52.1106V51.9225C76.8495 51.8725 76.6609 51.7523 76.4265 51.3957L74.9338 49.1606L74.976 49.1433C75.6472 48.8791 76.1439 48.4201 76.1445 47.6653C76.1439 46.4743 75.2194 46.1981 74.1408 46.1934C73.688 46.1934 73.2763 46.2273 72.7593 46.2273C72.2555 46.2273 71.7467 46.1957 71.4659 46.1934V46.3755H71.5837C71.8503 46.3762 72.2298 46.4202 72.2298 47.0654V51.4273C72.2298 51.7719 71.9067 51.9291 71.5837 51.9296H71.4659V52.1105C71.8789 52.1093 72.2697 52.0767 72.6725 52.0767C73.1525 52.0767 73.6362 52.1094 74.1111 52.1105V51.9296H73.9938C73.6023 51.929 73.2538 51.8802 73.2538 51.2029V49.3291H73.2912H73.2913ZM73.2913 49.0934H73.2538V46.4648L73.2864 46.4618C73.4037 46.4529 73.5198 46.4285 73.7791 46.4285C74.5609 46.4285 75.0689 46.9368 75.07 47.7195C75.0677 48.7445 74.5763 49.0927 73.7112 49.0933H73.2913V49.0934ZM73.7112 49.0196C74.5607 49.0124 74.988 48.7172 74.9969 47.7195C74.9921 46.9696 74.5263 46.5041 73.779 46.5011C73.547 46.5011 73.4381 46.5225 73.3287 46.5321V49.0196H73.7112Z" fill="#211E1F"/>
<path d="M83.1141 50.4564L83.1296 50.4398V47.2207C83.1296 46.516 82.6412 46.4136 82.3842 46.4136H82.1962V46.1558C82.599 46.1558 82.9929 46.1897 83.3968 46.1897C83.749 46.1897 84.0994 46.1558 84.4534 46.1558V46.4136H84.3243C83.9638 46.4136 83.5604 46.482 83.5604 47.5035V51.4106C83.5604 51.7106 83.5688 52.0106 83.611 52.2767H83.2856L78.8676 47.3488V50.8862C78.8676 51.6333 79.0133 51.8898 79.6737 51.8898H79.8195V52.1487C79.4512 52.1487 79.0818 52.1148 78.7135 52.1148C78.3261 52.1148 77.9317 52.1487 77.5462 52.1487V51.8898H77.6652C78.2578 51.8898 78.438 51.4874 78.438 50.8011V47.1851C78.438 46.7047 78.0435 46.4136 77.6581 46.4136H77.5462V46.1559C77.8711 46.1559 78.2072 46.1898 78.5326 46.1898C78.7885 46.1898 79.0383 46.1559 79.2959 46.1559L83.1141 50.4564Z" fill="#211E1F"/>
<path d="M83.6113 52.3136L83.2579 52.3017L78.9037 47.4458V50.8857C78.9138 51.6327 79.0268 51.8446 79.6741 51.8529H79.8556V51.8899V52.1851H79.818C79.4469 52.1851 79.0791 52.1499 78.7115 52.1499C78.3284 52.1499 77.9321 52.1851 77.546 52.1851H77.5073V52.1488V51.8529H77.546H77.665C78.2314 51.8506 78.3938 51.4857 78.3991 50.7988V47.1851C78.3985 46.7279 78.0244 46.4506 77.6579 46.4499H77.5073V46.4137V46.1179H77.546C77.8732 46.1179 78.2088 46.1517 78.5324 46.1517C78.7846 46.1517 79.0333 46.1179 79.3213 46.1297L83.0926 50.3786V47.2202C83.0902 46.538 82.6333 46.4535 82.384 46.45H82.1573V46.4137V46.1179H82.1949C82.6006 46.1179 82.9956 46.1517 83.3966 46.1517C83.7464 46.1517 84.098 46.1179 84.4514 46.1179H84.4888V46.1565V46.45H84.4514H84.324C83.9701 46.4595 83.6053 46.491 83.5964 47.5036V51.41C83.5964 51.71 83.6042 52.0077 83.6476 52.2719L83.6524 52.3136H83.6113ZM83.2853 52.2386H83.5673C83.5298 51.9809 83.5214 51.6952 83.5214 51.41V47.5035C83.522 46.4731 83.9564 46.3779 84.324 46.3749H84.4138V46.1934C84.0771 46.1958 83.7375 46.2267 83.3965 46.2267C83.0027 46.2267 82.6201 46.1958 82.2316 46.1934V46.3749H82.384C82.6481 46.3779 83.1681 46.4934 83.1681 47.2202L83.1563 50.4654L83.1395 50.4833L83.1134 50.5106L79.2952 46.1935C79.0405 46.1935 78.7918 46.2268 78.5325 46.2268C78.2148 46.2268 77.8941 46.1958 77.5817 46.1935V46.375H77.6578C78.0607 46.378 78.4741 46.6821 78.4741 47.1851V50.7987C78.4741 51.488 78.2802 51.9267 77.665 51.9291L77.5817 51.9285V52.11C77.9524 52.1082 78.3349 52.0773 78.7115 52.0773C79.0715 52.0773 79.4279 52.1082 79.7824 52.11V51.9291H79.6741C78.9983 51.9285 78.8294 51.6327 78.8282 50.8856V47.2535L83.2853 52.2386ZM83.0926 50.4398V50.4368L83.0859 50.4303L83.0926 50.4398Z" fill="#211E1F"/>
<path d="M85.833 50.9207C85.7462 51.2118 85.6427 51.4368 85.6427 51.5898C85.6427 51.8481 86.0038 51.8898 86.2858 51.8898H86.3816V52.1487C86.0378 52.1302 85.6873 52.1148 85.3416 52.1148C85.0329 52.1148 84.7259 52.1303 84.4166 52.1487V51.8898H84.4683C84.8026 51.8898 85.0865 51.6927 85.2131 51.3314L86.5874 47.3921C86.6981 47.0743 86.8539 46.6451 86.9058 46.3267C87.1789 46.2333 87.5227 46.0618 87.6852 45.9583C87.7119 45.9494 87.7268 45.9404 87.7536 45.9404C87.7792 45.9404 87.7958 45.9404 87.8148 45.9672C87.8398 46.035 87.8648 46.113 87.8922 46.1815L89.4705 50.6719C89.5734 50.9719 89.6751 51.2892 89.7865 51.5475C89.89 51.788 90.0708 51.8898 90.3546 51.8898H90.4052V52.1487C90.0192 52.1302 89.6325 52.1148 89.2219 52.1148C88.8013 52.1148 88.3711 52.1303 87.9339 52.1487V51.8898H88.0291C88.2254 51.8898 88.561 51.8564 88.561 51.6416C88.561 51.5303 88.4836 51.2987 88.3879 51.0231L88.054 50.0273H86.1069L85.833 50.9207ZM87.0848 47.1172H87.0675L86.2697 49.5469H87.8731L87.0848 47.1172Z" fill="#211E1F"/>
<path d="M90.4027 52.185C90.0166 52.1678 89.6304 52.1498 89.2217 52.1498C88.8011 52.1498 88.3739 52.1678 87.9348 52.185L87.8962 52.1874V52.1487V51.8517H87.9337H88.0283C88.227 51.8517 88.522 51.8064 88.522 51.6416C88.5245 51.5439 88.4471 51.3082 88.3525 51.0351L88.0259 50.0643H86.1334L85.8669 50.9315C85.78 51.2243 85.6772 51.4511 85.6777 51.591C85.6806 51.8006 86.0013 51.8517 86.2857 51.8517H86.4178V51.8904V52.1874L86.3791 52.185C86.0359 52.1678 85.6854 52.1498 85.3434 52.1498C85.0358 52.1498 84.7265 52.1678 84.4189 52.185L84.379 52.1874V52.1487V51.8517H84.4165H84.4677C84.7871 51.8505 85.0537 51.669 85.1774 51.3196L86.5511 47.3797C86.6636 47.0613 86.8183 46.6333 86.8926 46.2911C87.1615 46.2 87.5059 46.0274 87.6714 45.9226C87.6952 45.9149 87.719 45.903 87.7541 45.903C87.775 45.9024 87.8213 45.9077 87.8487 45.953C87.8731 46.0238 87.8998 46.1 87.926 46.1697L89.5062 50.6596C89.6074 50.9608 89.7097 51.2781 89.8216 51.5316C89.9209 51.7608 90.0786 51.8506 90.3546 51.8518H90.4421V51.8905V52.1875L90.4027 52.185ZM87.9711 52.1082C88.396 52.0934 88.8118 52.0767 89.2217 52.0767C89.6203 52.0767 89.9933 52.0934 90.3663 52.1082V51.929H90.3544C90.0606 51.9308 89.8576 51.8154 89.7523 51.5624C89.6405 51.3017 89.5358 50.9832 89.4353 50.6826L87.8557 46.1934C87.8296 46.1249 87.8046 46.047 87.7819 45.9862C87.7748 45.9779 87.7766 45.9779 87.7695 45.9779H87.7539C87.7361 45.9779 87.726 45.9833 87.7039 45.9892C87.5386 46.097 87.1942 46.2654 86.94 46.3327C86.8871 46.6577 86.7331 47.0862 86.6212 47.4041L85.2481 51.3445C85.1173 51.7172 84.8168 51.9297 84.4676 51.929H84.4539V52.1082C84.7478 52.0934 85.0452 52.0767 85.3433 52.0767C85.6747 52.0767 86.0138 52.0934 86.341 52.1082V51.929H86.2857C86.0067 51.9254 85.6164 51.8939 85.6057 51.5909C85.6063 51.4195 85.7116 51.1999 85.7954 50.91L85.8329 50.9213L85.7954 50.9088L86.078 49.9909H88.0782L88.4226 51.0112C88.519 51.2868 88.5969 51.5154 88.5969 51.6416C88.5851 51.9053 88.2228 51.9237 88.0282 51.9291H87.9711L87.9711 52.1082ZM86.2173 49.5838L87.0389 47.0796H87.0674H87.0853H87.1109L87.9253 49.5838H86.2173ZM86.3202 49.5094H87.8218L87.0751 47.2088L86.3202 49.5094Z" fill="#211E1F"/>
<path d="M90.7824 46.5844C90.1387 46.5844 90.1131 46.7392 89.9839 47.3653H89.7263C89.7602 47.1255 89.8037 46.8856 89.8305 46.6356C89.8649 46.3951 89.8805 46.1558 89.8805 45.907H90.0874C90.1559 46.1648 90.3713 46.1558 90.6015 46.1558H95.0296C95.2599 46.1558 95.4741 46.1475 95.4919 45.8892L95.6971 45.9237C95.6643 46.1558 95.6305 46.3874 95.6043 46.6195C95.5859 46.8511 95.5859 47.0832 95.5859 47.3142L95.3289 47.41C95.3127 47.0927 95.27 46.5844 94.6947 46.5844H93.2876V51.1522C93.2876 51.8141 93.5887 51.8898 93.9992 51.8898H94.1621V52.1487C93.8278 52.1487 93.2282 52.1148 92.764 52.1148C92.2501 52.1148 91.6485 52.1487 91.3143 52.1487V51.8898H91.4767C91.9496 51.8898 92.19 51.8475 92.19 51.1701V46.5844H90.7824Z" fill="#211E1F"/>
<path d="M94.1622 52.185C93.8254 52.185 93.2245 52.1505 92.7641 52.1505C92.2512 52.1505 91.6503 52.185 91.3142 52.185H91.2761V52.1487V51.8529H91.3142H91.4766C91.9495 51.8416 92.1394 51.8356 92.1512 51.1701L92.15 46.622H90.7823V46.5844V46.5463H92.2256V51.1701C92.2256 51.8588 91.9478 51.9266 91.4766 51.9284H91.3505V52.1117C91.6902 52.1081 92.2661 52.0772 92.7641 52.0772C93.212 52.0772 93.7856 52.1082 94.1246 52.1117V51.9284H93.998C93.5856 51.9266 93.2513 51.8272 93.2501 51.1522V46.5463H94.6946C95.2705 46.5487 95.346 47.0386 95.3621 47.357L95.5495 47.2886C95.5495 47.0647 95.5501 46.8403 95.5667 46.6153C95.5905 46.3945 95.6226 46.1743 95.6543 45.9552L95.5246 45.9331C95.4853 46.1831 95.2432 46.1969 95.0296 46.1933H90.6014H90.558C90.3557 46.1956 90.1368 46.1837 90.0588 45.9427H89.9184C89.916 46.1808 89.8999 46.4118 89.866 46.6403C89.8435 46.8767 89.8012 47.104 89.7691 47.3296H89.953C90.0666 46.7314 90.141 46.5373 90.7823 46.5463V46.5844L90.7822 46.6219C90.1463 46.6327 90.1606 46.7403 90.0201 47.3749L90.0136 47.404H89.9838H89.6827L89.6881 47.3611C89.7238 47.1189 89.7666 46.8796 89.7916 46.6314C89.8267 46.3915 89.8434 46.1534 89.8434 45.907V45.8695H89.8803H90.1146L90.1218 45.8962C90.1819 46.1129 90.3383 46.1141 90.5579 46.1177L90.6013 46.1189H95.0295C95.2662 46.1142 95.4393 46.1105 95.4542 45.8868L95.4566 45.8457L95.4971 45.8541L95.7404 45.8922L95.7339 45.9297C95.6988 46.1595 95.666 46.3916 95.6399 46.622C95.6226 46.8505 95.6226 47.0833 95.6226 47.3142V47.341L95.5983 47.3505L95.2943 47.4612L95.2925 47.4112C95.2705 47.0886 95.2366 46.6219 94.6946 46.6219H93.3245V51.1522C93.3334 51.7998 93.5898 51.8445 93.998 51.8528H94.199V51.8897V52.185L94.1622 52.185Z" fill="#211E1F"/>
<path d="M96.0138 51.8898H96.134C96.4439 51.8898 96.7681 51.8482 96.7681 51.4011V46.9035C96.7681 46.4558 96.4439 46.4136 96.134 46.4136H96.0138V46.1559C96.3488 46.1559 96.8628 46.1898 97.2822 46.1898C97.7129 46.1898 98.2276 46.1559 98.6309 46.1559V46.4136H98.5107C98.202 46.4136 97.8748 46.4559 97.8748 46.9035V51.4011C97.8748 51.8482 98.202 51.8898 98.5107 51.8898H98.6309V52.1488C98.2186 52.1488 97.7034 52.1148 97.2757 52.1148C96.8545 52.1148 96.3488 52.1488 96.0138 52.1488V51.8898Z" fill="#211E1F"/>
<path d="M98.6312 52.185C98.2166 52.185 97.7031 52.1499 97.2754 52.1499C96.8559 52.1499 96.3491 52.185 96.0141 52.185H95.9767V52.1487V51.8898V51.8529H96.0141H96.1343C96.4442 51.8481 96.7287 51.8213 96.7299 51.4011V46.9034C96.7287 46.4844 96.4442 46.4558 96.1343 46.4499H95.9767V46.4136V46.119H96.0141C96.3491 46.119 96.8643 46.1517 97.2825 46.1517C97.7103 46.1517 98.2249 46.119 98.6312 46.119H98.6676V46.1558V46.4499H98.6312H98.511C98.1975 46.4558 97.9161 46.4844 97.9119 46.9034V51.4011C97.9161 51.8213 98.1976 51.8481 98.511 51.8529H98.6676V51.8898V52.185H98.6312ZM98.5926 52.11V51.9284H98.511C98.2035 51.9284 97.8394 51.8743 97.8394 51.4011V46.9034C97.8394 46.429 98.2035 46.3755 98.511 46.3755H98.5926V46.1933C98.1964 46.1957 97.7008 46.2267 97.2825 46.2267C96.8762 46.2267 96.3842 46.1957 96.0516 46.1933V46.3755H96.1344C96.4395 46.3755 96.8049 46.429 96.806 46.9034V51.4011C96.8048 51.8743 96.4395 51.9284 96.1344 51.9284H96.0516V52.11C96.3825 52.1064 96.868 52.0772 97.2754 52.0772C97.6913 52.0772 98.1881 52.1082 98.5926 52.11Z" fill="#211E1F"/>
<path d="M102.052 46.0273C103.881 46.0273 105.339 47.1618 105.339 48.9898C105.339 50.9648 103.923 52.2773 102.097 52.2773C100.277 52.2773 98.888 51.0409 98.888 49.1951C98.888 47.41 100.268 46.0273 102.052 46.0273ZM102.182 51.8993C103.847 51.8993 104.136 50.4302 104.136 49.1785C104.136 47.9237 103.461 46.4047 102.036 46.4047C100.534 46.4047 100.089 47.7439 100.089 48.8933C100.089 50.4302 100.792 51.8993 102.182 51.8993Z" fill="#211E1F"/>
<path d="M98.8495 49.1951C98.8531 47.3892 100.25 45.9922 102.052 45.9898V46.0273V46.0635C100.289 46.0635 98.9239 47.4285 98.9221 49.1951C98.9263 51.02 100.295 52.2379 102.097 52.2385C103.905 52.2379 105.3 50.9439 105.303 48.988C105.302 47.1832 103.866 46.0659 102.052 46.0635V46.0273V45.9898C103.895 45.991 105.372 47.1368 105.376 48.988C105.374 50.9837 103.94 52.31 102.097 52.3135C100.262 52.3099 98.8531 51.0611 98.8496 49.1951H98.8495V49.1951ZM100.051 48.8933C100.054 47.7386 100.505 46.366 102.036 46.366C103.492 46.3696 104.172 47.9172 104.175 49.1785C104.172 50.4302 103.878 51.935 102.182 51.935V51.8993V51.8624C103.814 51.86 104.096 50.4302 104.1 49.1785C104.1 47.9339 103.43 46.444 102.036 46.4422C100.564 46.4439 100.129 47.7499 100.126 48.8933C100.127 50.4225 100.824 51.8588 102.182 51.8624V51.8993V51.935C100.758 51.9332 100.054 50.4392 100.051 48.8933Z" fill="#211E1F"/>
<path d="M111.12 50.4564L111.138 50.4398V47.2207C111.138 46.516 110.647 46.4136 110.39 46.4136H110.204V46.1558C110.606 46.1558 111.001 46.1897 111.403 46.1897C111.756 46.1897 112.107 46.1558 112.46 46.1558V46.4136H112.33C111.97 46.4136 111.567 46.482 111.567 47.5035V51.4106C111.567 51.7106 111.575 52.0106 111.618 52.2767H111.293L106.874 47.3488V50.8862C106.874 51.6333 107.019 51.8898 107.679 51.8898H107.826V52.1487C107.457 52.1487 107.089 52.1148 106.72 52.1148C106.334 52.1148 105.938 52.1487 105.552 52.1487V51.8898H105.673C106.266 51.8898 106.444 51.4874 106.444 50.8011V47.1851C106.444 46.7047 106.051 46.4136 105.664 46.4136H105.552V46.1559C105.878 46.1559 106.213 46.1898 106.538 46.1898C106.796 46.1898 107.044 46.1559 107.302 46.1559L111.12 50.4564Z" fill="#211E1F"/>
<path d="M111.619 52.3135L111.264 52.301L106.911 47.4457V50.8862C106.92 51.6327 107.034 51.844 107.678 51.8517H107.864V51.8904V52.185H107.826C107.454 52.185 107.086 52.1505 106.72 52.1505C106.335 52.1505 105.941 52.185 105.551 52.185H105.515V52.1481V51.8517H105.551H105.673C106.238 51.85 106.401 51.4857 106.408 50.8011V47.1851C106.407 46.7279 106.032 46.4505 105.664 46.4499H105.515V46.4136V46.119H105.551C105.88 46.119 106.214 46.1518 106.538 46.1518C106.793 46.1518 107.04 46.119 107.331 46.1315L111.1 50.3786V47.2214C111.098 46.5382 110.641 46.456 110.39 46.45H110.164V46.4138V46.1191H110.203C110.607 46.1191 111.002 46.1518 111.402 46.1518C111.754 46.1518 112.104 46.1191 112.459 46.1191H112.496V46.156V46.45H112.459H112.33C111.977 46.4601 111.612 46.4923 111.604 47.5036V51.4101C111.604 51.7101 111.611 52.0094 111.653 52.2719L111.66 52.3136H111.619V52.3135ZM111.293 52.2385H111.574C111.536 51.9808 111.53 51.6951 111.53 51.41V47.5034C111.53 46.4713 111.962 46.3779 112.33 46.3749H112.423V46.1933C112.084 46.1957 111.745 46.2267 111.402 46.2267C111.012 46.2267 110.628 46.1957 110.239 46.1933V46.3749H110.39C110.656 46.3779 111.173 46.4952 111.173 47.2213L111.164 50.4653L111.148 50.4833L111.121 50.5106L107.302 46.1934C107.049 46.1934 106.799 46.2267 106.538 46.2267C106.222 46.2267 105.901 46.1958 105.588 46.1934V46.3749H105.664C106.067 46.3779 106.481 46.6821 106.481 47.1851V50.8011C106.481 51.4874 106.29 51.9267 105.673 51.9291L105.588 51.9284V52.11C105.961 52.1082 106.343 52.0773 106.72 52.0773C107.077 52.0773 107.432 52.1082 107.789 52.11V51.9291H107.678C107.005 51.9284 106.836 51.6327 106.836 50.8862V47.2523L111.293 52.2385ZM111.1 50.4397V50.4367L111.093 50.4302L111.1 50.4397Z" fill="#211E1F"/>
<path d="M113.838 50.9207C113.754 51.2118 113.65 51.4368 113.65 51.5898C113.65 51.8481 114.011 51.8898 114.293 51.8898H114.389V52.1487C114.045 52.1302 113.693 52.1148 113.35 52.1148C113.04 52.1148 112.732 52.1303 112.425 52.1487V51.8898H112.474C112.81 51.8898 113.094 51.6927 113.221 51.3314L114.595 47.3921C114.706 47.0743 114.861 46.6451 114.911 46.3267C115.186 46.2333 115.529 46.0618 115.693 45.9583C115.718 45.9494 115.735 45.9404 115.761 45.9404C115.787 45.9404 115.803 45.9404 115.82 45.9672C115.846 46.035 115.873 46.113 115.899 46.1815L117.476 50.6719C117.579 50.9719 117.682 51.2892 117.795 51.5475C117.898 51.788 118.078 51.8898 118.36 51.8898H118.413V52.1487C118.026 52.1302 117.64 52.1148 117.228 52.1148C116.808 52.1148 116.379 52.1303 115.941 52.1487V51.8898H116.036C116.232 51.8898 116.569 51.8564 116.569 51.6416C116.569 51.5303 116.491 51.2987 116.395 51.0231L116.062 50.0273H114.114L113.838 50.9207ZM115.092 47.1172H115.075L114.276 49.5469H115.882L115.092 47.1172Z" fill="#211E1F"/>
<path d="M118.409 52.185C118.023 52.1695 117.638 52.1505 117.228 52.1505C116.809 52.1505 116.38 52.1695 115.942 52.185L115.904 52.1874V52.1481V51.8529H115.941H116.034C116.234 51.8529 116.53 51.8065 116.53 51.6416C116.532 51.5439 116.455 51.31 116.359 51.035L116.033 50.0642H114.139L113.874 50.9314C113.788 51.2254 113.686 51.451 113.688 51.5898C113.688 51.8005 114.009 51.8529 114.293 51.8529H114.424V51.8898V52.1874L114.386 52.185C114.042 52.1695 113.691 52.1505 113.35 52.1505C113.042 52.1505 112.734 52.1695 112.425 52.185L112.387 52.1874V52.1481V51.8529H112.425H112.473C112.793 51.8516 113.061 51.6678 113.186 51.3196L114.559 47.3797C114.669 47.0612 114.823 46.6333 114.9 46.2922C115.169 46.1987 115.514 46.0273 115.68 45.9225C115.703 45.9148 115.726 45.9046 115.761 45.9046C115.784 45.9023 115.828 45.9076 115.855 45.9546C115.881 46.022 115.906 46.0999 115.934 46.1695L117.512 50.6594C117.614 50.9606 117.717 51.2779 117.828 51.5332C117.929 51.7606 118.085 51.8505 118.359 51.8529H118.448V51.8898V52.1874L118.409 52.185ZM115.978 52.1094C116.402 52.0933 116.82 52.0766 117.228 52.0766C117.627 52.0766 118.001 52.0933 118.375 52.1082L118.373 51.929H118.359C118.069 51.9296 117.866 51.8153 117.759 51.5623C117.646 51.3016 117.544 50.9832 117.442 50.6837L115.863 46.1933C115.837 46.1249 115.811 46.0469 115.79 45.9886C115.783 45.9779 115.784 45.9779 115.777 45.9779H115.761C115.743 45.9779 115.734 45.9838 115.713 45.9898C115.546 46.0951 115.202 46.2665 114.948 46.3326C114.895 46.6576 114.739 47.0856 114.628 47.404L113.255 51.3445C113.124 51.7171 112.824 51.9296 112.473 51.929H112.461V52.1082C112.756 52.0933 113.051 52.0766 113.35 52.0766C113.682 52.0766 114.021 52.0933 114.351 52.1082V51.929H114.293C114.014 51.9254 113.622 51.8951 113.612 51.5897C113.614 51.4195 113.72 51.201 113.803 50.91L113.838 50.9212L113.803 50.9087L114.086 49.9909H116.086L116.43 51.0111C116.525 51.2874 116.603 51.5153 116.603 51.6415C116.59 51.9052 116.23 51.9236 116.034 51.929H115.978V52.1094H115.978ZM114.225 49.5833L115.048 47.0796H115.074H115.092H115.119L115.93 49.5833H114.225ZM114.328 49.5094H115.828L115.082 47.21L114.328 49.5094Z" fill="#211E1F"/>
<path d="M120.575 51.307C120.575 51.6506 120.812 51.7529 121.087 51.788C121.439 51.8142 121.825 51.8142 122.221 51.7707C122.581 51.7273 122.89 51.5214 123.043 51.307C123.18 51.1178 123.258 50.8773 123.309 50.6886H123.558C123.464 51.1779 123.344 51.66 123.24 52.1487C122.487 52.1487 121.731 52.1148 120.977 52.1148C120.221 52.1148 119.467 52.1487 118.712 52.1487V51.8897H118.83C119.14 51.8897 119.476 51.8481 119.476 51.3154V46.9035C119.476 46.4558 119.14 46.4136 118.83 46.4136H118.712V46.1559C119.165 46.1559 119.612 46.1898 120.066 46.1898C120.505 46.1898 120.933 46.1559 121.371 46.1559V46.4136H121.155C120.83 46.4136 120.575 46.4231 120.575 46.8767V51.307Z" fill="#211E1F"/>
<path d="M123.24 52.1851C122.484 52.1851 121.729 52.1505 120.977 52.1505C120.221 52.1505 119.466 52.1851 118.71 52.1851H118.674V52.1482V51.8529H118.71H118.83C119.141 51.8458 119.435 51.8243 119.438 51.3154V46.9018C119.435 46.4846 119.143 46.456 118.83 46.45H118.674V46.4137V46.1191H118.71C119.166 46.1191 119.613 46.1518 120.067 46.1518C120.502 46.1518 120.93 46.1191 121.371 46.1191H121.406V46.156V46.45H121.371H121.156C120.823 46.4595 120.616 46.444 120.61 46.8768V51.3071C120.612 51.6268 120.822 51.7131 121.089 51.7506C121.241 51.7613 121.4 51.7679 121.565 51.7679C121.775 51.7679 121.994 51.7577 122.215 51.7339C122.565 51.6929 122.866 51.4911 123.013 51.2863C123.145 51.103 123.222 50.8673 123.273 50.6798L123.28 50.6513H123.309H123.604L123.596 50.6965C123.499 51.1876 123.381 51.6673 123.277 52.156L123.27 52.1852H123.241H123.24V52.1851ZM123.21 52.1101C123.309 51.6446 123.421 51.1892 123.514 50.7249H123.337C123.284 50.9118 123.208 51.1421 123.073 51.3296C122.913 51.5523 122.595 51.7618 122.223 51.8076C121.998 51.8308 121.776 51.8427 121.565 51.8427C121.399 51.8427 121.238 51.835 121.083 51.8242C120.804 51.7933 120.533 51.6742 120.534 51.307V46.8767C120.534 46.3999 120.836 46.3755 121.156 46.3755H121.333V46.1934C120.91 46.1957 120.494 46.2272 120.066 46.2272C119.622 46.2272 119.188 46.1957 118.747 46.1934V46.3755H118.83C119.136 46.3755 119.511 46.4291 119.511 46.9017V51.3154C119.511 51.8707 119.138 51.9285 118.83 51.9285H118.747V52.11C119.489 52.1094 120.231 52.0773 120.977 52.0773C121.722 52.0773 122.467 52.1094 123.21 52.1101Z" fill="#211E1F"/>
<path d="M123.454 45.9118C123.971 45.9118 124.357 46.3094 124.357 46.8189C124.357 47.3261 123.971 47.7201 123.454 47.7201C122.937 47.7201 122.55 47.3261 122.55 46.8189C122.55 46.3095 122.937 45.9118 123.454 45.9118ZM123.454 47.5517C123.858 47.5517 124.169 47.2064 124.169 46.8189C124.169 46.4291 123.863 46.0809 123.454 46.0809C123.048 46.0809 122.737 46.4291 122.737 46.8189C122.737 47.2064 123.048 47.5517 123.454 47.5517ZM123.004 47.2951V47.2505C123.115 47.235 123.136 47.2386 123.136 47.1695V46.5005C123.136 46.4065 123.126 46.3744 123.008 46.3791V46.3332H123.471C123.63 46.3332 123.776 46.4088 123.776 46.5731C123.776 46.7076 123.687 46.807 123.562 46.8457L123.71 47.0528C123.78 47.1469 123.858 47.235 123.91 47.2659V47.2951H123.734C123.649 47.2951 123.575 47.1171 123.409 46.8784H123.309V47.179C123.309 47.2385 123.33 47.235 123.441 47.2504V47.2951L123.004 47.2951ZM123.309 46.8189H123.415C123.532 46.8189 123.587 46.7303 123.587 46.588C123.587 46.4439 123.502 46.3933 123.409 46.3933H123.309V46.8189Z" fill="#211E1F"/>
<path d="M30.8153 56.9999C39.0105 57.0391 46.4906 50.3129 46.4906 42.1303C46.4906 33.1821 39.0105 26.997 30.8153 27H23.7624C15.469 26.997 8.64276 33.184 8.64276 42.1303C8.64276 50.3147 15.469 57.0391 23.7624 56.9999H30.8153Z" fill="#0079BE"/>
<path d="M23.7957 28.2399C16.2175 28.2422 10.0766 34.3881 10.0748 41.9732C10.0766 49.557 16.2174 55.7022 23.7957 55.7046C31.3758 55.7022 37.5179 49.557 37.519 41.9732C37.5179 34.3881 31.3758 28.2422 23.7957 28.2399ZM15.0984 41.9732C15.1055 38.2667 17.4192 35.106 20.6819 33.85V50.0945C17.4192 48.8392 15.1055 45.6803 15.0984 41.9732ZM26.9084 50.0981V33.8494C30.1722 35.1024 32.4895 38.2649 32.4954 41.9732C32.4895 45.6826 30.1722 48.8427 26.9084 50.0981Z" fill="white"/>
<path d="M51.2966 33.4542C51.2966 32.0351 50.5571 32.1285 49.8479 32.1131V31.703C50.4625 31.7334 51.0925 31.7334 51.7083 31.7334C52.3705 31.7334 53.2694 31.703 54.4366 31.703C58.519 31.703 60.7423 34.4316 60.7423 37.2255C60.7423 38.788 59.8285 42.716 54.2468 42.716C53.4431 42.716 52.7012 42.685 51.9605 42.685C51.2513 42.685 50.5571 42.7005 49.8478 42.716V42.3065C50.7932 42.2112 51.2513 42.1797 51.2966 41.1065L51.2966 33.4542ZM52.8423 40.8547C52.8423 42.0696 53.7103 42.2112 54.4825 42.2112C57.8891 42.2112 59.0075 39.6392 59.0075 37.288C59.0075 34.3386 57.1151 32.2089 54.0726 32.2089C53.4253 32.2089 53.1279 32.2553 52.8423 32.272L52.8423 40.8547Z" fill="#211E1F"/>
<path d="M61.2955 42.3065H61.5942C62.035 42.3065 62.351 42.3065 62.351 41.7845V37.5095C62.351 36.8162 62.1148 36.7197 61.5312 36.406V36.153C62.2719 35.9304 63.156 35.6328 63.2178 35.5852C63.3291 35.5221 63.4231 35.5054 63.5022 35.5054C63.5802 35.5054 63.6129 35.6006 63.6129 35.7274V41.7845C63.6129 42.3065 63.9597 42.3065 64.4011 42.3065H64.6689V42.7167C64.1322 42.7167 63.5801 42.6852 63.0138 42.6852C62.4462 42.6852 61.878 42.7007 61.2956 42.7167V42.3065H61.2955ZM62.9822 33.0762C62.5717 33.0762 62.21 32.6977 62.21 32.2875C62.21 31.8923 62.5884 31.5286 62.9822 31.5286C63.3909 31.5286 63.755 31.8614 63.755 32.2875C63.755 32.7137 63.407 33.0762 62.9822 33.0762Z" fill="#211E1F"/>
<path d="M66.1669 37.6036C66.1669 37.0202 65.9925 36.8631 65.2531 36.5631V36.2638C65.9307 36.0429 66.5763 35.8376 67.3335 35.5054C67.3805 35.5054 67.4269 35.5376 67.4269 35.6632V36.6893C68.3271 36.0429 69.0999 35.5054 70.1576 35.5054C71.4962 35.5054 71.9691 36.4839 71.9691 37.7142V41.7845C71.9691 42.3065 72.316 42.3065 72.758 42.3065H73.0419V42.7166C72.4885 42.7166 71.9371 42.6852 71.3707 42.6852C70.8025 42.6852 70.2343 42.7006 69.6673 42.7166V42.3065H69.9505C70.3931 42.3065 70.7067 42.3065 70.7067 41.7845V37.6993C70.7067 36.7988 70.1576 36.3577 69.2574 36.3577C68.7536 36.3577 67.9492 36.7679 67.4268 37.1154V41.7844C67.4268 42.3065 67.7754 42.3065 68.2176 42.3065H68.5007V42.7166C67.9492 42.7166 67.3965 42.685 66.829 42.685C66.2619 42.685 65.6933 42.7006 65.1262 42.7166V42.3065H65.4106C65.852 42.3065 66.1668 42.3065 66.1668 41.7844V37.6036H66.1669Z" fill="#211E1F"/>
<path d="M74.2406 38.3618C74.2078 38.5042 74.2078 38.7404 74.2406 39.2773C74.3335 40.7755 75.2978 42.0059 76.5572 42.0059C77.4252 42.0059 78.1046 41.5327 78.6871 40.9494L78.9072 41.1708C78.1814 42.1327 77.283 42.9529 75.9908 42.9529C73.4832 42.9529 72.9786 40.5225 72.9786 39.5137C72.9786 36.4208 75.0597 35.5053 76.1627 35.5053C77.4406 35.5053 78.8132 36.3095 78.8281 37.9821C78.8281 38.0779 78.8281 38.1714 78.8132 38.2672L78.6704 38.3618H74.2406ZM77.032 37.8565C77.4252 37.8565 77.4718 37.6512 77.4718 37.4625C77.4718 36.6577 76.9833 36.0107 76.0998 36.0107C75.139 36.0107 74.4767 36.7196 74.2876 37.8565H77.032Z" fill="#211E1F"/>
<path d="M79.1911 42.3065H79.6171C80.0572 42.3065 80.3726 42.3065 80.3726 41.7844V37.3517C80.3726 36.863 79.7902 36.7678 79.5528 36.6416V36.4059C80.704 35.916 81.3352 35.5053 81.4786 35.5053C81.572 35.5053 81.6184 35.5529 81.6184 35.7113V37.1309H81.6517C82.0449 36.516 82.7083 35.5053 83.6692 35.5053C84.0635 35.5053 84.5675 35.7732 84.5675 36.3416C84.5675 36.7678 84.2688 37.1476 83.8275 37.1476C83.3366 37.1476 83.3366 36.7678 82.7857 36.7678C82.5174 36.7678 81.6351 37.1309 81.6351 38.0779V41.7844C81.6351 42.3065 81.9498 42.3065 82.3918 42.3065H83.2741V42.7166C82.4067 42.7005 81.7469 42.6851 81.0675 42.6851C80.4215 42.6851 79.7587 42.7006 79.1912 42.7166L79.1911 42.3065Z" fill="#211E1F"/>
<path d="M85.2617 40.5225C85.467 41.5642 86.0971 42.4482 87.2488 42.4482C88.1769 42.4482 88.5243 41.8803 88.5243 41.328C88.5243 39.4661 85.088 40.0655 85.088 37.5256C85.088 36.6417 85.7982 35.5054 87.5319 35.5054C88.0359 35.5054 88.7134 35.6482 89.328 35.9643L89.4399 37.5721H89.0764C88.9193 36.5792 88.3679 36.0108 87.3576 36.0108C86.727 36.0108 86.1285 36.3739 86.1285 37.0519C86.1285 38.8995 89.7861 38.3298 89.7861 40.8066C89.7861 41.8477 88.9502 42.953 87.0738 42.953C86.4432 42.953 85.7025 42.7322 85.151 42.4173L84.9773 40.6025L85.2617 40.5225Z" fill="#211E1F"/>
<path d="M104.024 34.5589H103.63C103.33 32.7136 102.022 31.9714 100.256 31.9714C98.4419 31.9714 95.8087 33.1856 95.8087 36.9719C95.8087 40.1612 98.0807 42.448 100.508 42.448C102.069 42.448 103.363 41.3754 103.678 39.7184L104.04 39.8124L103.678 42.1159C103.016 42.5272 101.234 42.9529 100.192 42.9529C96.5036 42.9529 94.1708 40.5702 94.1708 37.0202C94.1708 33.7857 97.0556 31.4654 100.146 31.4654C101.422 31.4654 102.652 31.8773 103.866 32.3035L104.024 34.5589Z" fill="#211E1F"/>
<path d="M104.592 42.3065H104.891C105.333 42.3065 105.65 42.3065 105.65 41.7844V32.9976C105.65 31.9715 105.413 31.9399 104.813 31.7666V31.5143C105.444 31.3096 106.106 31.025 106.437 30.8352C106.609 30.7411 106.736 30.6613 106.783 30.6613C106.879 30.6613 106.911 30.7566 106.911 30.8833V41.7844C106.911 42.3065 107.257 42.3065 107.699 42.3065H107.965V42.7166C107.431 42.7166 106.879 42.6851 106.311 42.6851C105.744 42.6851 105.177 42.7006 104.592 42.7166V42.3065H104.592Z" fill="#211E1F"/>
<path d="M114.716 41.8476C114.716 42.1327 114.889 42.1481 115.156 42.1481C115.346 42.1481 115.582 42.1327 115.788 42.1327V42.4648C115.109 42.5273 113.816 42.8589 113.516 42.9529L113.437 42.9052V41.6285C112.492 42.4011 111.766 42.9529 110.646 42.9529C109.794 42.9529 108.912 42.4011 108.912 41.0767V37.0362C108.912 36.6261 108.849 36.2314 107.967 36.1529V35.8529C108.536 35.8374 109.794 35.7427 110 35.7427C110.175 35.7427 110.175 35.8529 110.175 36.1999V40.2695C110.175 40.7439 110.175 42.1004 111.546 42.1004C112.082 42.1004 112.791 41.6903 113.453 41.1397V36.8933C113.453 36.579 112.696 36.4058 112.13 36.2474V35.9635C113.547 35.8682 114.432 35.7426 114.588 35.7426C114.716 35.7426 114.716 35.8528 114.716 36.0272L114.716 41.8476Z" fill="#211E1F"/>
<path d="M117.853 36.6417C118.483 36.1053 119.335 35.5054 120.203 35.5054C122.032 35.5054 123.135 37.1006 123.135 38.819C123.135 40.8857 121.622 42.9529 119.366 42.9529C118.199 42.9529 117.585 42.5737 117.174 42.4011L116.702 42.763L116.372 42.5904C116.512 41.6594 116.592 40.744 116.592 39.7821V32.9976C116.592 31.9715 116.354 31.9399 115.755 31.7666V31.5143C116.388 31.3096 117.048 31.025 117.38 30.8351C117.553 30.741 117.679 30.6613 117.728 30.6613C117.822 30.6613 117.853 30.7566 117.853 30.8833V36.6416H117.853V36.6417ZM117.853 40.9327C117.853 41.5327 118.42 42.5434 119.477 42.5434C121.164 42.5434 121.873 40.8857 121.873 39.481C121.873 37.7774 120.582 36.3578 119.351 36.3578C118.767 36.3578 118.279 36.737 117.853 37.1006L117.853 40.9327Z" fill="#211E1F"/>
<path d="M49.8299 51.8898H49.9507C50.2588 51.8898 50.5849 51.8482 50.5849 51.4011V46.9035C50.5849 46.4558 50.2588 46.4136 49.9507 46.4136H49.8299V46.1559C50.1648 46.1559 50.6795 46.1898 51.1013 46.1898C51.5296 46.1898 52.0436 46.1559 52.447 46.1559V46.4136H52.3262C52.0186 46.4136 51.6921 46.4559 51.6921 46.9035V51.4011C51.6921 51.8482 52.0186 51.8898 52.3262 51.8898H52.447V52.1488C52.0353 52.1488 51.5195 52.1148 51.0917 52.1148C50.6712 52.1148 50.1648 52.1488 49.8299 52.1488V51.8898Z" fill="#211E1F"/>
<path d="M52.4472 52.1851C52.0325 52.1851 51.5186 52.1505 51.0914 52.1505C50.6719 52.1505 50.1675 52.1851 49.8301 52.1851H49.7933V52.1482V51.8904V51.8529H49.8301H49.9503C50.2614 51.8458 50.5447 51.8208 50.5476 51.4011V46.9035C50.5447 46.4838 50.2615 46.4558 49.9503 46.4499H49.7933V46.4137V46.1178H49.8301C50.1675 46.1178 50.6815 46.1517 51.1009 46.1517C51.528 46.1517 52.0415 46.1178 52.4472 46.1178H52.4853V46.1571V46.4499H52.4472H52.327C52.0159 46.4559 51.7309 46.4838 51.7291 46.9035V51.4011C51.7309 51.8208 52.0158 51.8458 52.327 51.8529H52.4853V51.8904V52.1851H52.4472ZM52.4103 52.1118V51.9285H52.3271C52.0207 51.9285 51.656 51.8755 51.6542 51.4011V46.9035C51.6559 46.4291 52.0206 46.3755 52.3271 46.3755H52.4103V46.1934C52.0141 46.1934 51.5173 46.2267 51.1009 46.2267C50.6933 46.2267 50.2001 46.1957 49.8682 46.1934V46.3755H49.9503C50.2561 46.3755 50.622 46.4291 50.622 46.9035V51.4011C50.622 51.8755 50.2561 51.9285 49.9503 51.9285H49.8682V52.1118C50.2001 52.1082 50.685 52.0773 51.0914 52.0773C51.509 52.0773 52.0058 52.1094 52.4103 52.1118Z" fill="#211E1F"/>
<path d="M58.3413 50.4564L58.3585 50.4398V47.2207C58.3585 46.516 57.8689 46.4136 57.6119 46.4136H57.4226V46.1558C57.8266 46.1558 58.221 46.1897 58.6238 46.1897C58.9754 46.1897 59.3288 46.1558 59.6798 46.1558V46.4136H59.5513C59.1902 46.4136 58.7868 46.482 58.7868 47.5035V51.4106C58.7868 51.7106 58.7957 52.0106 58.8379 52.2767H58.5114L54.094 47.3488V50.8862C54.094 51.6333 54.2386 51.8898 54.9001 51.8898H55.0452V52.1487C54.677 52.1487 54.3087 52.1148 53.9392 52.1148C53.5543 52.1148 53.1594 52.1487 52.7726 52.1487V51.8898H52.8928C53.4848 51.8898 53.6645 51.4874 53.6645 50.8011V47.1851C53.6645 46.7047 53.2689 46.4136 52.8845 46.4136H52.7727V46.1559C53.0987 46.1559 53.4331 46.1898 53.7585 46.1898C54.0161 46.1898 54.2654 46.1559 54.5223 46.1559L58.3413 50.4564Z" fill="#211E1F"/>
<path d="M58.8377 52.3142L58.4838 52.301L54.13 47.4458V50.8862C54.1401 51.6327 54.2538 51.8446 54.8999 51.8529H55.0837V51.8898V52.185H55.0456C54.6744 52.185 54.3049 52.1505 53.939 52.1505C53.5547 52.1505 53.1608 52.185 52.7717 52.185H52.7342V52.1481V51.8529H52.7717H52.8925C53.4595 51.8499 53.6213 51.4856 53.6278 50.8011V47.1857C53.6266 46.7285 53.2518 46.4511 52.8842 46.4499H52.7342V46.4118V46.119H52.7717C53.0995 46.119 53.4356 46.1517 53.7575 46.1517C54.0127 46.1517 54.2614 46.119 54.5505 46.1315L58.3212 50.3786V47.2214C58.3164 46.5381 57.8614 46.456 57.6114 46.4499H57.3842V46.4118V46.119H57.4223C57.8275 46.119 58.2224 46.1517 58.6234 46.1517C58.9727 46.1517 59.3243 46.119 59.6788 46.119H59.7163V46.1559V46.4499H59.6788H59.5509C59.1969 46.4601 58.8334 46.491 58.8234 47.5034V51.41C58.8234 51.71 58.8323 52.01 58.874 52.2701L58.8823 52.3141H58.8377V52.3142ZM58.5118 52.2385H58.7955C58.7569 51.9808 58.7503 51.6951 58.7503 51.41V47.5034C58.7503 46.4731 59.1817 46.3755 59.5511 46.3755H59.6415V46.1933C59.3036 46.1957 58.9645 46.2267 58.6237 46.2267C58.231 46.2267 57.8491 46.1957 57.4606 46.1933L57.46 46.3755H57.6117C57.8752 46.3755 58.3958 46.4933 58.3958 47.2214L58.3839 50.4653L58.3667 50.4833L58.3376 50.51L54.5222 46.1933C54.2676 46.1933 54.0189 46.2267 53.7577 46.2267C53.443 46.2267 53.1211 46.1957 52.81 46.1933L52.8082 46.3755H52.8844C53.2871 46.3755 53.7006 46.6832 53.7006 47.1856V50.801C53.7006 51.4873 53.5096 51.9266 52.8927 51.929L52.81 51.9266V52.1117C53.1818 52.1081 53.5638 52.0772 53.9391 52.0772C54.2973 52.0772 54.6537 52.1082 55.0082 52.1117V51.929H54.9C54.2247 51.9266 54.057 51.6326 54.0563 50.8861V47.2522L58.5118 52.2385ZM58.3213 50.4392V50.4362L58.3142 50.4302L58.3213 50.4392Z" fill="#211E1F"/>
<path d="M60.964 46.5844C60.3197 46.5844 60.2953 46.7392 60.1668 47.3653H59.9092C59.9431 47.1255 59.9859 46.8856 60.0121 46.6356C60.0465 46.3951 60.0632 46.1558 60.0632 45.907H60.2697C60.3387 46.1648 60.5529 46.1558 60.7855 46.1558H65.2112C65.4432 46.1558 65.6574 46.1475 65.6753 45.8892L65.8799 45.9237C65.8465 46.1558 65.812 46.3874 65.7859 46.6195C65.7704 46.8511 65.7704 47.0832 65.7704 47.3142L65.5122 47.41C65.4943 47.0927 65.4515 46.5844 64.8774 46.5844H63.4704V51.1522C63.4704 51.8141 63.7709 51.8898 64.1813 51.8898H64.3449V52.1487C64.0106 52.1487 63.4092 52.1148 62.9468 52.1148C62.4323 52.1148 61.8308 52.1487 61.4958 52.1487V51.8898H61.6594C62.1324 51.8898 62.3715 51.8475 62.3715 51.1701V46.5844H60.964Z" fill="#211E1F"/>
<path d="M64.3464 52.185C64.0084 52.185 63.4081 52.1505 62.947 52.1505C62.433 52.1505 61.8328 52.185 61.496 52.185H61.4603V52.1487V51.8529H61.496H61.6596C62.1326 51.8416 62.3229 51.8356 62.3336 51.1701V46.622H60.9641V46.5844V46.5463H62.4081V51.1701C62.4081 51.8588 62.1308 51.9284 61.6596 51.929H61.5335V52.11C61.872 52.1083 62.4491 52.0772 62.9471 52.0772C63.3945 52.0772 63.968 52.1083 64.3071 52.11V51.929H64.1816C63.7669 51.9284 63.4331 51.8267 63.4331 51.1523V46.5463H64.8776C65.4535 46.5487 65.5285 47.0386 65.5475 47.357L65.7326 47.2886C65.7326 47.0648 65.7337 46.8404 65.7492 46.6142C65.7742 46.3933 65.8057 46.1743 65.8379 45.9553L65.7069 45.9332C65.6671 46.1832 65.4261 46.1957 65.2101 46.1933H60.7856H60.741C60.5393 46.1933 60.3186 46.1838 60.2419 45.944H60.1003C60.099 46.1815 60.0824 46.4119 60.0496 46.6404C60.0246 46.8761 59.9854 47.1029 59.9533 47.3297H60.1371C60.2501 46.7314 60.324 46.5374 60.964 46.5464V46.5845V46.622C60.3298 46.6333 60.343 46.7404 60.2031 47.3749L60.1966 47.4041H60.1669H59.8665L59.8712 47.3595C59.9057 47.119 59.9492 46.8797 59.9747 46.6297C60.0104 46.3916 60.0271 46.1535 60.0271 45.907V45.8695H60.0634H60.299L60.3049 45.8963C60.3638 46.113 60.5227 46.1142 60.741 46.1178H60.7856H65.2101C65.4494 46.1142 65.623 46.1106 65.6379 45.8861L65.6415 45.8457L65.6801 45.854L65.9223 45.8922L65.9169 45.9297C65.8824 46.1594 65.8485 46.3916 65.8235 46.6219C65.8063 46.8505 65.8063 47.0826 65.8063 47.3142V47.341L65.7825 47.3505L65.4785 47.4611L65.4761 47.4111C65.4535 47.0885 65.4196 46.6219 64.8776 46.6219H63.508V51.1522C63.5158 51.7998 63.7727 51.8445 64.1814 51.8528H64.3825V51.8897V52.1849L64.3464 52.185Z" fill="#211E1F"/>
<path d="M66.1543 51.8898H66.2751C66.5833 51.8898 66.9098 51.8482 66.9098 51.4011V46.9035C66.9098 46.4558 66.5833 46.4136 66.2751 46.4136H66.1543V46.1559C66.6766 46.1559 67.5703 46.1898 68.2895 46.1898C69.0118 46.1898 69.9024 46.1559 70.4853 46.1559C70.4712 46.5243 70.4789 47.0922 70.5044 47.469L70.2456 47.538C70.2046 46.9803 70.1016 46.5345 69.2003 46.5345H68.0087V48.7827H69.0285C69.543 48.7827 69.6555 48.4916 69.706 48.0268H69.9631C69.9465 48.3631 69.9375 48.6977 69.9375 49.0322C69.9375 49.359 69.9464 49.6846 69.9631 50.0107L69.706 50.0619C69.6555 49.5471 69.6294 49.2125 69.0367 49.2125H68.0088V51.2119C68.0088 51.7708 68.5043 51.7708 69.0541 51.7708C70.0838 51.7708 70.5378 51.7012 70.7954 50.7238L71.0358 50.7827C70.9233 51.2387 70.821 51.6928 70.7449 52.1488C70.1951 52.1488 69.2081 52.1148 68.4371 52.1148C67.6636 52.1148 66.6435 52.1488 66.1543 52.1488V51.8898Z" fill="#211E1F"/>
<path d="M70.7441 52.185C70.1932 52.185 69.2068 52.1499 68.4364 52.1499C67.6636 52.1499 66.6438 52.185 66.1542 52.185H66.118V52.1487V51.8898V51.8529H66.1542H66.2744C66.5855 51.8481 66.8675 51.8207 66.8718 51.4011V46.9034C66.8676 46.4844 66.5855 46.4564 66.2744 46.4499H66.118V46.4136V46.119H66.1542C66.6778 46.119 67.5702 46.1517 68.2894 46.1517C69.011 46.1517 69.9011 46.119 70.4853 46.119H70.524L70.5222 46.1571C70.5162 46.2862 70.5139 46.4386 70.5139 46.6005C70.5139 46.8975 70.5221 47.2219 70.5395 47.4666L70.5406 47.4976L70.5121 47.5059L70.2105 47.5845L70.2087 47.5405C70.1582 46.9833 70.0838 46.5792 69.2004 46.5708H68.0444L68.0432 48.744H69.0285C69.5223 48.7393 69.6108 48.4863 69.6692 48.0238L69.6722 47.9899H69.7055H70.0012L70.0006 48.0285C69.984 48.363 69.9732 48.6975 69.9732 49.0321C69.9732 49.3571 69.984 49.6827 70.0006 50.0094L70.0012 50.0399L69.9703 50.0469L69.6722 50.1065L69.6692 50.066C69.6103 49.5422 69.6061 49.2553 69.0361 49.2488L68.0444 49.2481V51.2118C68.0451 51.7332 68.4947 51.7303 69.054 51.7332C70.0868 51.7273 70.5009 51.6774 70.7597 50.713L70.7681 50.6785L70.8043 50.685L71.0792 50.7558L71.0709 50.7916C70.9603 51.2463 70.8573 51.6999 70.7805 52.1546L70.7734 52.185H70.7441ZM70.7126 52.11C70.787 51.6772 70.8851 51.2428 70.9905 50.8106L70.8209 50.7677C70.5639 51.7285 70.0664 51.8141 69.0539 51.8077C68.5137 51.8077 67.9723 51.8077 67.9699 51.2118V49.1749H69.0361C69.6351 49.1683 69.6965 49.5302 69.7387 50.0189L69.9244 49.9803C69.9076 49.6642 69.9 49.3469 69.9 49.032C69.9 48.7088 69.9076 48.3874 69.9244 48.0642H69.7387C69.6911 48.5112 69.5513 48.8255 69.0284 48.8195H67.9699V46.4957H69.2004C70.0928 46.4897 70.2408 46.9505 70.2789 47.4904L70.464 47.4404C70.4492 47.1981 70.4389 46.8874 70.4389 46.6005C70.4389 46.4535 70.4425 46.3148 70.4473 46.1933C69.8643 46.1957 68.9957 46.2267 68.2895 46.2267C67.5845 46.2267 66.7165 46.1957 66.1912 46.1933V46.3755H66.2744C66.5802 46.3755 66.9455 46.429 66.9467 46.9034V51.4011C66.9455 51.8743 66.5802 51.9267 66.2744 51.9291H66.1912V52.11C66.6916 52.1094 67.6827 52.0773 68.4364 52.0773C69.1931 52.0773 70.1593 52.1094 70.7126 52.11Z" fill="#211E1F"/>
<path d="M72.1936 47.0654C72.1936 46.4392 71.851 46.4136 71.5838 46.4136H71.4297V46.1553C71.7045 46.1553 72.2358 46.1898 72.7594 46.1898C73.274 46.1898 73.6863 46.1553 74.1403 46.1553C75.2206 46.1553 76.1827 46.4475 76.1827 47.6678C76.1827 48.4386 75.6681 48.9112 74.9904 49.1785L76.4569 51.3749C76.6972 51.738 76.868 51.8398 77.2892 51.8897V52.1487C77.0061 52.1487 76.7311 52.1148 76.4485 52.1148C76.1827 52.1148 75.9072 52.1487 75.6423 52.1487C74.982 51.2814 74.4145 50.3541 73.857 49.366H73.2925V51.2041C73.2925 51.866 73.6001 51.8898 73.9944 51.8898H74.1491V52.1488C73.6589 52.1488 73.1634 52.1148 72.6737 52.1148C72.2615 52.1148 71.858 52.1488 71.4297 52.1488V51.8898H71.5838C71.9027 51.8898 72.1936 51.7457 72.1936 51.4273V47.0654ZM73.2924 49.057H73.7113C74.5697 49.057 75.0319 48.7309 75.0319 47.7178C75.0319 46.9547 74.5436 46.4648 73.7791 46.4648C73.5215 46.4648 73.412 46.4916 73.2923 46.4993V49.057H73.2924Z" fill="#211E1F"/>
<path d="M77.2892 52.1851C77.0018 52.1851 76.7288 52.1505 76.4468 52.1505C76.185 52.1505 75.9113 52.1851 75.6121 52.1708C74.9541 51.3071 74.3901 50.3851 73.8356 49.4041H73.3287V51.203C73.3376 51.8488 73.597 51.8435 73.9939 51.853H74.186V51.8899V52.1851H74.1479C73.6577 52.1851 73.1598 52.1506 72.6725 52.1506C72.2625 52.1506 71.8604 52.1851 71.4296 52.1851H71.3921V52.1482V51.853H71.4296H71.5837C71.893 51.8512 72.1537 51.7167 72.1549 51.4274V47.0656C72.1484 46.456 71.8503 46.4596 71.5837 46.4507H71.3921V46.4138V46.118H71.4296C71.7075 46.118 72.237 46.1518 72.7593 46.1518C73.2715 46.1518 73.6839 46.118 74.1408 46.118C75.2218 46.1203 76.2177 46.4191 76.2206 47.6656C76.2206 48.4412 75.7084 48.925 75.0462 49.1953L76.4877 51.3548C76.7276 51.7107 76.8769 51.7995 77.2945 51.853L77.326 51.8577V51.8899V52.1851H77.2892V52.1851ZM73.2913 49.3291H73.8778L73.888 49.3481C74.4472 50.3344 75.0105 51.2606 75.6424 52.1118C75.9042 52.1118 76.1796 52.0767 76.4468 52.0767C76.721 52.0767 76.9851 52.1064 77.2522 52.1106V51.9225C76.8495 51.8725 76.6609 51.7523 76.4265 51.3957L74.9338 49.1606L74.976 49.1433C75.6472 48.8791 76.1439 48.4201 76.1445 47.6653C76.1439 46.4743 75.2194 46.1981 74.1408 46.1934C73.688 46.1934 73.2763 46.2273 72.7593 46.2273C72.2555 46.2273 71.7467 46.1957 71.4659 46.1934V46.3755H71.5837C71.8503 46.3762 72.2298 46.4202 72.2298 47.0654V51.4273C72.2298 51.7719 71.9067 51.9291 71.5837 51.9296H71.4659V52.1105C71.8789 52.1093 72.2697 52.0767 72.6725 52.0767C73.1525 52.0767 73.6362 52.1094 74.1111 52.1105V51.9296H73.9938C73.6023 51.929 73.2538 51.8802 73.2538 51.2029V49.3291H73.2912H73.2913ZM73.2913 49.0934H73.2538V46.4648L73.2864 46.4618C73.4037 46.4529 73.5198 46.4285 73.7791 46.4285C74.5609 46.4285 75.0689 46.9368 75.07 47.7195C75.0677 48.7445 74.5763 49.0927 73.7112 49.0933H73.2913V49.0934ZM73.7112 49.0196C74.5607 49.0124 74.988 48.7172 74.9969 47.7195C74.9921 46.9696 74.5263 46.5041 73.779 46.5011C73.547 46.5011 73.4381 46.5225 73.3287 46.5321V49.0196H73.7112Z" fill="#211E1F"/>
<path d="M83.1141 50.4564L83.1296 50.4398V47.2207C83.1296 46.516 82.6412 46.4136 82.3842 46.4136H82.1962V46.1558C82.599 46.1558 82.9929 46.1897 83.3968 46.1897C83.749 46.1897 84.0994 46.1558 84.4534 46.1558V46.4136H84.3243C83.9638 46.4136 83.5604 46.482 83.5604 47.5035V51.4106C83.5604 51.7106 83.5688 52.0106 83.611 52.2767H83.2856L78.8676 47.3488V50.8862C78.8676 51.6333 79.0133 51.8898 79.6737 51.8898H79.8195V52.1487C79.4512 52.1487 79.0818 52.1148 78.7135 52.1148C78.3261 52.1148 77.9317 52.1487 77.5462 52.1487V51.8898H77.6652C78.2578 51.8898 78.438 51.4874 78.438 50.8011V47.1851C78.438 46.7047 78.0435 46.4136 77.6581 46.4136H77.5462V46.1559C77.8711 46.1559 78.2072 46.1898 78.5326 46.1898C78.7885 46.1898 79.0383 46.1559 79.2959 46.1559L83.1141 50.4564Z" fill="#211E1F"/>
<path d="M83.6113 52.3136L83.2579 52.3017L78.9037 47.4458V50.8857C78.9138 51.6327 79.0268 51.8446 79.6741 51.8529H79.8556V51.8899V52.1851H79.818C79.4469 52.1851 79.0791 52.1499 78.7115 52.1499C78.3284 52.1499 77.9321 52.1851 77.546 52.1851H77.5073V52.1488V51.8529H77.546H77.665C78.2314 51.8506 78.3938 51.4857 78.3991 50.7988V47.1851C78.3985 46.7279 78.0244 46.4506 77.6579 46.4499H77.5073V46.4137V46.1179H77.546C77.8732 46.1179 78.2088 46.1517 78.5324 46.1517C78.7846 46.1517 79.0333 46.1179 79.3213 46.1297L83.0926 50.3786V47.2202C83.0902 46.538 82.6333 46.4535 82.384 46.45H82.1573V46.4137V46.1179H82.1949C82.6006 46.1179 82.9956 46.1517 83.3966 46.1517C83.7464 46.1517 84.098 46.1179 84.4514 46.1179H84.4888V46.1565V46.45H84.4514H84.324C83.9701 46.4595 83.6053 46.491 83.5964 47.5036V51.41C83.5964 51.71 83.6042 52.0077 83.6476 52.2719L83.6524 52.3136H83.6113ZM83.2853 52.2386H83.5673C83.5298 51.9809 83.5214 51.6952 83.5214 51.41V47.5035C83.522 46.4731 83.9564 46.3779 84.324 46.3749H84.4138V46.1934C84.0771 46.1958 83.7375 46.2267 83.3965 46.2267C83.0027 46.2267 82.6201 46.1958 82.2316 46.1934V46.3749H82.384C82.6481 46.3779 83.1681 46.4934 83.1681 47.2202L83.1563 50.4654L83.1395 50.4833L83.1134 50.5106L79.2952 46.1935C79.0405 46.1935 78.7918 46.2268 78.5325 46.2268C78.2148 46.2268 77.8941 46.1958 77.5817 46.1935V46.375H77.6578C78.0607 46.378 78.4741 46.6821 78.4741 47.1851V50.7987C78.4741 51.488 78.2802 51.9267 77.665 51.9291L77.5817 51.9285V52.11C77.9524 52.1082 78.3349 52.0773 78.7115 52.0773C79.0715 52.0773 79.4279 52.1082 79.7824 52.11V51.9291H79.6741C78.9983 51.9285 78.8294 51.6327 78.8282 50.8856V47.2535L83.2853 52.2386ZM83.0926 50.4398V50.4368L83.0859 50.4303L83.0926 50.4398Z" fill="#211E1F"/>
<path d="M85.833 50.9207C85.7462 51.2118 85.6427 51.4368 85.6427 51.5898C85.6427 51.8481 86.0038 51.8898 86.2858 51.8898H86.3816V52.1487C86.0378 52.1302 85.6873 52.1148 85.3416 52.1148C85.0329 52.1148 84.7259 52.1303 84.4166 52.1487V51.8898H84.4683C84.8026 51.8898 85.0865 51.6927 85.2131 51.3314L86.5874 47.3921C86.6981 47.0743 86.8539 46.6451 86.9058 46.3267C87.1789 46.2333 87.5227 46.0618 87.6852 45.9583C87.7119 45.9494 87.7268 45.9404 87.7536 45.9404C87.7792 45.9404 87.7958 45.9404 87.8148 45.9672C87.8398 46.035 87.8648 46.113 87.8922 46.1815L89.4705 50.6719C89.5734 50.9719 89.6751 51.2892 89.7865 51.5475C89.89 51.788 90.0708 51.8898 90.3546 51.8898H90.4052V52.1487C90.0192 52.1302 89.6325 52.1148 89.2219 52.1148C88.8013 52.1148 88.3711 52.1303 87.9339 52.1487V51.8898H88.0291C88.2254 51.8898 88.561 51.8564 88.561 51.6416C88.561 51.5303 88.4836 51.2987 88.3879 51.0231L88.054 50.0273H86.1069L85.833 50.9207ZM87.0848 47.1172H87.0675L86.2697 49.5469H87.8731L87.0848 47.1172Z" fill="#211E1F"/>
<path d="M90.4027 52.185C90.0166 52.1678 89.6304 52.1498 89.2217 52.1498C88.8011 52.1498 88.3739 52.1678 87.9348 52.185L87.8962 52.1874V52.1487V51.8517H87.9337H88.0283C88.227 51.8517 88.522 51.8064 88.522 51.6416C88.5245 51.5439 88.4471 51.3082 88.3525 51.0351L88.0259 50.0643H86.1334L85.8669 50.9315C85.78 51.2243 85.6772 51.4511 85.6777 51.591C85.6806 51.8006 86.0013 51.8517 86.2857 51.8517H86.4178V51.8904V52.1874L86.3791 52.185C86.0359 52.1678 85.6854 52.1498 85.3434 52.1498C85.0358 52.1498 84.7265 52.1678 84.4189 52.185L84.379 52.1874V52.1487V51.8517H84.4165H84.4677C84.7871 51.8505 85.0537 51.669 85.1774 51.3196L86.5511 47.3797C86.6636 47.0613 86.8183 46.6333 86.8926 46.2911C87.1615 46.2 87.5059 46.0274 87.6714 45.9226C87.6952 45.9149 87.719 45.903 87.7541 45.903C87.775 45.9024 87.8213 45.9077 87.8487 45.953C87.8731 46.0238 87.8998 46.1 87.926 46.1697L89.5062 50.6596C89.6074 50.9608 89.7097 51.2781 89.8216 51.5316C89.9209 51.7608 90.0786 51.8506 90.3546 51.8518H90.4421V51.8905V52.1875L90.4027 52.185ZM87.9711 52.1082C88.396 52.0934 88.8118 52.0767 89.2217 52.0767C89.6203 52.0767 89.9933 52.0934 90.3663 52.1082V51.929H90.3544C90.0606 51.9308 89.8576 51.8154 89.7523 51.5624C89.6405 51.3017 89.5358 50.9832 89.4353 50.6826L87.8557 46.1934C87.8296 46.1249 87.8046 46.047 87.7819 45.9862C87.7748 45.9779 87.7766 45.9779 87.7695 45.9779H87.7539C87.7361 45.9779 87.726 45.9833 87.7039 45.9892C87.5386 46.097 87.1942 46.2654 86.94 46.3327C86.8871 46.6577 86.7331 47.0862 86.6212 47.4041L85.2481 51.3445C85.1173 51.7172 84.8168 51.9297 84.4676 51.929H84.4539V52.1082C84.7478 52.0934 85.0452 52.0767 85.3433 52.0767C85.6747 52.0767 86.0138 52.0934 86.341 52.1082V51.929H86.2857C86.0067 51.9254 85.6164 51.8939 85.6057 51.5909C85.6063 51.4195 85.7116 51.1999 85.7954 50.91L85.8329 50.9213L85.7954 50.9088L86.078 49.9909H88.0782L88.4226 51.0112C88.519 51.2868 88.5969 51.5154 88.5969 51.6416C88.5851 51.9053 88.2228 51.9237 88.0282 51.9291H87.9711L87.9711 52.1082ZM86.2173 49.5838L87.0389 47.0796H87.0674H87.0853H87.1109L87.9253 49.5838H86.2173ZM86.3202 49.5094H87.8218L87.0751 47.2088L86.3202 49.5094Z" fill="#211E1F"/>
<path d="M90.7824 46.5844C90.1387 46.5844 90.1131 46.7392 89.9839 47.3653H89.7263C89.7602 47.1255 89.8037 46.8856 89.8305 46.6356C89.8649 46.3951 89.8805 46.1558 89.8805 45.907H90.0874C90.1559 46.1648 90.3713 46.1558 90.6015 46.1558H95.0296C95.2599 46.1558 95.4741 46.1475 95.4919 45.8892L95.6971 45.9237C95.6643 46.1558 95.6305 46.3874 95.6043 46.6195C95.5859 46.8511 95.5859 47.0832 95.5859 47.3142L95.3289 47.41C95.3127 47.0927 95.27 46.5844 94.6947 46.5844H93.2876V51.1522C93.2876 51.8141 93.5887 51.8898 93.9992 51.8898H94.1621V52.1487C93.8278 52.1487 93.2282 52.1148 92.764 52.1148C92.2501 52.1148 91.6485 52.1487 91.3143 52.1487V51.8898H91.4767C91.9496 51.8898 92.19 51.8475 92.19 51.1701V46.5844H90.7824Z" fill="#211E1F"/>
<path d="M94.1622 52.185C93.8254 52.185 93.2245 52.1505 92.7641 52.1505C92.2512 52.1505 91.6503 52.185 91.3142 52.185H91.2761V52.1487V51.8529H91.3142H91.4766C91.9495 51.8416 92.1394 51.8356 92.1512 51.1701L92.15 46.622H90.7823V46.5844V46.5463H92.2256V51.1701C92.2256 51.8588 91.9478 51.9266 91.4766 51.9284H91.3505V52.1117C91.6902 52.1081 92.2661 52.0772 92.7641 52.0772C93.212 52.0772 93.7856 52.1082 94.1246 52.1117V51.9284H93.998C93.5856 51.9266 93.2513 51.8272 93.2501 51.1522V46.5463H94.6946C95.2705 46.5487 95.346 47.0386 95.3621 47.357L95.5495 47.2886C95.5495 47.0647 95.5501 46.8403 95.5667 46.6153C95.5905 46.3945 95.6226 46.1743 95.6543 45.9552L95.5246 45.9331C95.4853 46.1831 95.2432 46.1969 95.0296 46.1933H90.6014H90.558C90.3557 46.1956 90.1368 46.1837 90.0588 45.9427H89.9184C89.916 46.1808 89.8999 46.4118 89.866 46.6403C89.8435 46.8767 89.8012 47.104 89.7691 47.3296H89.953C90.0666 46.7314 90.141 46.5373 90.7823 46.5463V46.5844L90.7822 46.6219C90.1463 46.6327 90.1606 46.7403 90.0201 47.3749L90.0136 47.404H89.9838H89.6827L89.6881 47.3611C89.7238 47.1189 89.7666 46.8796 89.7916 46.6314C89.8267 46.3915 89.8434 46.1534 89.8434 45.907V45.8695H89.8803H90.1146L90.1218 45.8962C90.1819 46.1129 90.3383 46.1141 90.5579 46.1177L90.6013 46.1189H95.0295C95.2662 46.1142 95.4393 46.1105 95.4542 45.8868L95.4566 45.8457L95.4971 45.8541L95.7404 45.8922L95.7339 45.9297C95.6988 46.1595 95.666 46.3916 95.6399 46.622C95.6226 46.8505 95.6226 47.0833 95.6226 47.3142V47.341L95.5983 47.3505L95.2943 47.4612L95.2925 47.4112C95.2705 47.0886 95.2366 46.6219 94.6946 46.6219H93.3245V51.1522C93.3334 51.7998 93.5898 51.8445 93.998 51.8528H94.199V51.8897V52.185L94.1622 52.185Z" fill="#211E1F"/>
<path d="M96.0138 51.8898H96.134C96.4439 51.8898 96.7681 51.8482 96.7681 51.4011V46.9035C96.7681 46.4558 96.4439 46.4136 96.134 46.4136H96.0138V46.1559C96.3488 46.1559 96.8628 46.1898 97.2822 46.1898C97.7129 46.1898 98.2276 46.1559 98.6309 46.1559V46.4136H98.5107C98.202 46.4136 97.8748 46.4559 97.8748 46.9035V51.4011C97.8748 51.8482 98.202 51.8898 98.5107 51.8898H98.6309V52.1488C98.2186 52.1488 97.7034 52.1148 97.2757 52.1148C96.8545 52.1148 96.3488 52.1488 96.0138 52.1488V51.8898Z" fill="#211E1F"/>
<path d="M98.6312 52.185C98.2166 52.185 97.7031 52.1499 97.2754 52.1499C96.8559 52.1499 96.3491 52.185 96.0141 52.185H95.9767V52.1487V51.8898V51.8529H96.0141H96.1343C96.4442 51.8481 96.7287 51.8213 96.7299 51.4011V46.9034C96.7287 46.4844 96.4442 46.4558 96.1343 46.4499H95.9767V46.4136V46.119H96.0141C96.3491 46.119 96.8643 46.1517 97.2825 46.1517C97.7103 46.1517 98.2249 46.119 98.6312 46.119H98.6676V46.1558V46.4499H98.6312H98.511C98.1975 46.4558 97.9161 46.4844 97.9119 46.9034V51.4011C97.9161 51.8213 98.1976 51.8481 98.511 51.8529H98.6676V51.8898V52.185H98.6312ZM98.5926 52.11V51.9284H98.511C98.2035 51.9284 97.8394 51.8743 97.8394 51.4011V46.9034C97.8394 46.429 98.2035 46.3755 98.511 46.3755H98.5926V46.1933C98.1964 46.1957 97.7008 46.2267 97.2825 46.2267C96.8762 46.2267 96.3842 46.1957 96.0516 46.1933V46.3755H96.1344C96.4395 46.3755 96.8049 46.429 96.806 46.9034V51.4011C96.8048 51.8743 96.4395 51.9284 96.1344 51.9284H96.0516V52.11C96.3825 52.1064 96.868 52.0772 97.2754 52.0772C97.6913 52.0772 98.1881 52.1082 98.5926 52.11Z" fill="#211E1F"/>
<path d="M102.052 46.0273C103.881 46.0273 105.339 47.1618 105.339 48.9898C105.339 50.9648 103.923 52.2773 102.097 52.2773C100.277 52.2773 98.888 51.0409 98.888 49.1951C98.888 47.41 100.268 46.0273 102.052 46.0273ZM102.182 51.8993C103.847 51.8993 104.136 50.4302 104.136 49.1785C104.136 47.9237 103.461 46.4047 102.036 46.4047C100.534 46.4047 100.089 47.7439 100.089 48.8933C100.089 50.4302 100.792 51.8993 102.182 51.8993Z" fill="#211E1F"/>
<path d="M98.8495 49.1951C98.8531 47.3892 100.25 45.9922 102.052 45.9898V46.0273V46.0635C100.289 46.0635 98.9239 47.4285 98.9221 49.1951C98.9263 51.02 100.295 52.2379 102.097 52.2385C103.905 52.2379 105.3 50.9439 105.303 48.988C105.302 47.1832 103.866 46.0659 102.052 46.0635V46.0273V45.9898C103.895 45.991 105.372 47.1368 105.376 48.988C105.374 50.9837 103.94 52.31 102.097 52.3135C100.262 52.3099 98.8531 51.0611 98.8496 49.1951H98.8495V49.1951ZM100.051 48.8933C100.054 47.7386 100.505 46.366 102.036 46.366C103.492 46.3696 104.172 47.9172 104.175 49.1785C104.172 50.4302 103.878 51.935 102.182 51.935V51.8993V51.8624C103.814 51.86 104.096 50.4302 104.1 49.1785C104.1 47.9339 103.43 46.444 102.036 46.4422C100.564 46.4439 100.129 47.7499 100.126 48.8933C100.127 50.4225 100.824 51.8588 102.182 51.8624V51.8993V51.935C100.758 51.9332 100.054 50.4392 100.051 48.8933Z" fill="#211E1F"/>
<path d="M111.12 50.4564L111.138 50.4398V47.2207C111.138 46.516 110.647 46.4136 110.39 46.4136H110.204V46.1558C110.606 46.1558 111.001 46.1897 111.403 46.1897C111.756 46.1897 112.107 46.1558 112.46 46.1558V46.4136H112.33C111.97 46.4136 111.567 46.482 111.567 47.5035V51.4106C111.567 51.7106 111.575 52.0106 111.618 52.2767H111.293L106.874 47.3488V50.8862C106.874 51.6333 107.019 51.8898 107.679 51.8898H107.826V52.1487C107.457 52.1487 107.089 52.1148 106.72 52.1148C106.334 52.1148 105.938 52.1487 105.552 52.1487V51.8898H105.673C106.266 51.8898 106.444 51.4874 106.444 50.8011V47.1851C106.444 46.7047 106.051 46.4136 105.664 46.4136H105.552V46.1559C105.878 46.1559 106.213 46.1898 106.538 46.1898C106.796 46.1898 107.044 46.1559 107.302 46.1559L111.12 50.4564Z" fill="#211E1F"/>
<path d="M111.619 52.3135L111.264 52.301L106.911 47.4457V50.8862C106.92 51.6327 107.034 51.844 107.678 51.8517H107.864V51.8904V52.185H107.826C107.454 52.185 107.086 52.1505 106.72 52.1505C106.335 52.1505 105.941 52.185 105.551 52.185H105.515V52.1481V51.8517H105.551H105.673C106.238 51.85 106.401 51.4857 106.408 50.8011V47.1851C106.407 46.7279 106.032 46.4505 105.664 46.4499H105.515V46.4136V46.119H105.551C105.88 46.119 106.214 46.1518 106.538 46.1518C106.793 46.1518 107.04 46.119 107.331 46.1315L111.1 50.3786V47.2214C111.098 46.5382 110.641 46.456 110.39 46.45H110.164V46.4138V46.1191H110.203C110.607 46.1191 111.002 46.1518 111.402 46.1518C111.754 46.1518 112.104 46.1191 112.459 46.1191H112.496V46.156V46.45H112.459H112.33C111.977 46.4601 111.612 46.4923 111.604 47.5036V51.4101C111.604 51.7101 111.611 52.0094 111.653 52.2719L111.66 52.3136H111.619V52.3135ZM111.293 52.2385H111.574C111.536 51.9808 111.53 51.6951 111.53 51.41V47.5034C111.53 46.4713 111.962 46.3779 112.33 46.3749H112.423V46.1933C112.084 46.1957 111.745 46.2267 111.402 46.2267C111.012 46.2267 110.628 46.1957 110.239 46.1933V46.3749H110.39C110.656 46.3779 111.173 46.4952 111.173 47.2213L111.164 50.4653L111.148 50.4833L111.121 50.5106L107.302 46.1934C107.049 46.1934 106.799 46.2267 106.538 46.2267C106.222 46.2267 105.901 46.1958 105.588 46.1934V46.3749H105.664C106.067 46.3779 106.481 46.6821 106.481 47.1851V50.8011C106.481 51.4874 106.29 51.9267 105.673 51.9291L105.588 51.9284V52.11C105.961 52.1082 106.343 52.0773 106.72 52.0773C107.077 52.0773 107.432 52.1082 107.789 52.11V51.9291H107.678C107.005 51.9284 106.836 51.6327 106.836 50.8862V47.2523L111.293 52.2385ZM111.1 50.4397V50.4367L111.093 50.4302L111.1 50.4397Z" fill="#211E1F"/>
<path d="M113.838 50.9207C113.754 51.2118 113.65 51.4368 113.65 51.5898C113.65 51.8481 114.011 51.8898 114.293 51.8898H114.389V52.1487C114.045 52.1302 113.693 52.1148 113.35 52.1148C113.04 52.1148 112.732 52.1303 112.425 52.1487V51.8898H112.474C112.81 51.8898 113.094 51.6927 113.221 51.3314L114.595 47.3921C114.706 47.0743 114.861 46.6451 114.911 46.3267C115.186 46.2333 115.529 46.0618 115.693 45.9583C115.718 45.9494 115.735 45.9404 115.761 45.9404C115.787 45.9404 115.803 45.9404 115.82 45.9672C115.846 46.035 115.873 46.113 115.899 46.1815L117.476 50.6719C117.579 50.9719 117.682 51.2892 117.795 51.5475C117.898 51.788 118.078 51.8898 118.36 51.8898H118.413V52.1487C118.026 52.1302 117.64 52.1148 117.228 52.1148C116.808 52.1148 116.379 52.1303 115.941 52.1487V51.8898H116.036C116.232 51.8898 116.569 51.8564 116.569 51.6416C116.569 51.5303 116.491 51.2987 116.395 51.0231L116.062 50.0273H114.114L113.838 50.9207ZM115.092 47.1172H115.075L114.276 49.5469H115.882L115.092 47.1172Z" fill="#211E1F"/>
<path d="M118.409 52.185C118.023 52.1695 117.638 52.1505 117.228 52.1505C116.809 52.1505 116.38 52.1695 115.942 52.185L115.904 52.1874V52.1481V51.8529H115.941H116.034C116.234 51.8529 116.53 51.8065 116.53 51.6416C116.532 51.5439 116.455 51.31 116.359 51.035L116.033 50.0642H114.139L113.874 50.9314C113.788 51.2254 113.686 51.451 113.688 51.5898C113.688 51.8005 114.009 51.8529 114.293 51.8529H114.424V51.8898V52.1874L114.386 52.185C114.042 52.1695 113.691 52.1505 113.35 52.1505C113.042 52.1505 112.734 52.1695 112.425 52.185L112.387 52.1874V52.1481V51.8529H112.425H112.473C112.793 51.8516 113.061 51.6678 113.186 51.3196L114.559 47.3797C114.669 47.0612 114.823 46.6333 114.9 46.2922C115.169 46.1987 115.514 46.0273 115.68 45.9225C115.703 45.9148 115.726 45.9046 115.761 45.9046C115.784 45.9023 115.828 45.9076 115.855 45.9546C115.881 46.022 115.906 46.0999 115.934 46.1695L117.512 50.6594C117.614 50.9606 117.717 51.2779 117.828 51.5332C117.929 51.7606 118.085 51.8505 118.359 51.8529H118.448V51.8898V52.1874L118.409 52.185ZM115.978 52.1094C116.402 52.0933 116.82 52.0766 117.228 52.0766C117.627 52.0766 118.001 52.0933 118.375 52.1082L118.373 51.929H118.359C118.069 51.9296 117.866 51.8153 117.759 51.5623C117.646 51.3016 117.544 50.9832 117.442 50.6837L115.863 46.1933C115.837 46.1249 115.811 46.0469 115.79 45.9886C115.783 45.9779 115.784 45.9779 115.777 45.9779H115.761C115.743 45.9779 115.734 45.9838 115.713 45.9898C115.546 46.0951 115.202 46.2665 114.948 46.3326C114.895 46.6576 114.739 47.0856 114.628 47.404L113.255 51.3445C113.124 51.7171 112.824 51.9296 112.473 51.929H112.461V52.1082C112.756 52.0933 113.051 52.0766 113.35 52.0766C113.682 52.0766 114.021 52.0933 114.351 52.1082V51.929H114.293C114.014 51.9254 113.622 51.8951 113.612 51.5897C113.614 51.4195 113.72 51.201 113.803 50.91L113.838 50.9212L113.803 50.9087L114.086 49.9909H116.086L116.43 51.0111C116.525 51.2874 116.603 51.5153 116.603 51.6415C116.59 51.9052 116.23 51.9236 116.034 51.929H115.978V52.1094H115.978ZM114.225 49.5833L115.048 47.0796H115.074H115.092H115.119L115.93 49.5833H114.225ZM114.328 49.5094H115.828L115.082 47.21L114.328 49.5094Z" fill="#211E1F"/>
<path d="M120.575 51.307C120.575 51.6506 120.812 51.7529 121.087 51.788C121.439 51.8142 121.825 51.8142 122.221 51.7707C122.581 51.7273 122.89 51.5214 123.043 51.307C123.18 51.1178 123.258 50.8773 123.309 50.6886H123.558C123.464 51.1779 123.344 51.66 123.24 52.1487C122.487 52.1487 121.731 52.1148 120.977 52.1148C120.221 52.1148 119.467 52.1487 118.712 52.1487V51.8897H118.83C119.14 51.8897 119.476 51.8481 119.476 51.3154V46.9035C119.476 46.4558 119.14 46.4136 118.83 46.4136H118.712V46.1559C119.165 46.1559 119.612 46.1898 120.066 46.1898C120.505 46.1898 120.933 46.1559 121.371 46.1559V46.4136H121.155C120.83 46.4136 120.575 46.4231 120.575 46.8767V51.307Z" fill="#211E1F"/>
<path d="M123.24 52.1851C122.484 52.1851 121.729 52.1505 120.977 52.1505C120.221 52.1505 119.466 52.1851 118.71 52.1851H118.674V52.1482V51.8529H118.71H118.83C119.141 51.8458 119.435 51.8243 119.438 51.3154V46.9018C119.435 46.4846 119.143 46.456 118.83 46.45H118.674V46.4137V46.1191H118.71C119.166 46.1191 119.613 46.1518 120.067 46.1518C120.502 46.1518 120.93 46.1191 121.371 46.1191H121.406V46.156V46.45H121.371H121.156C120.823 46.4595 120.616 46.444 120.61 46.8768V51.3071C120.612 51.6268 120.822 51.7131 121.089 51.7506C121.241 51.7613 121.4 51.7679 121.565 51.7679C121.775 51.7679 121.994 51.7577 122.215 51.7339C122.565 51.6929 122.866 51.4911 123.013 51.2863C123.145 51.103 123.222 50.8673 123.273 50.6798L123.28 50.6513H123.309H123.604L123.596 50.6965C123.499 51.1876 123.381 51.6673 123.277 52.156L123.27 52.1852H123.241H123.24V52.1851ZM123.21 52.1101C123.309 51.6446 123.421 51.1892 123.514 50.7249H123.337C123.284 50.9118 123.208 51.1421 123.073 51.3296C122.913 51.5523 122.595 51.7618 122.223 51.8076C121.998 51.8308 121.776 51.8427 121.565 51.8427C121.399 51.8427 121.238 51.835 121.083 51.8242C120.804 51.7933 120.533 51.6742 120.534 51.307V46.8767C120.534 46.3999 120.836 46.3755 121.156 46.3755H121.333V46.1934C120.91 46.1957 120.494 46.2272 120.066 46.2272C119.622 46.2272 119.188 46.1957 118.747 46.1934V46.3755H118.83C119.136 46.3755 119.511 46.4291 119.511 46.9017V51.3154C119.511 51.8707 119.138 51.9285 118.83 51.9285H118.747V52.11C119.489 52.1094 120.231 52.0773 120.977 52.0773C121.722 52.0773 122.467 52.1094 123.21 52.1101Z" fill="#211E1F"/>
<path d="M123.454 45.9118C123.971 45.9118 124.357 46.3094 124.357 46.8189C124.357 47.3261 123.971 47.7201 123.454 47.7201C122.937 47.7201 122.55 47.3261 122.55 46.8189C122.55 46.3095 122.937 45.9118 123.454 45.9118ZM123.454 47.5517C123.858 47.5517 124.169 47.2064 124.169 46.8189C124.169 46.4291 123.863 46.0809 123.454 46.0809C123.048 46.0809 122.737 46.4291 122.737 46.8189C122.737 47.2064 123.048 47.5517 123.454 47.5517ZM123.004 47.2951V47.2505C123.115 47.235 123.136 47.2386 123.136 47.1695V46.5005C123.136 46.4065 123.126 46.3744 123.008 46.3791V46.3332H123.471C123.63 46.3332 123.776 46.4088 123.776 46.5731C123.776 46.7076 123.687 46.807 123.562 46.8457L123.71 47.0528C123.78 47.1469 123.858 47.235 123.91 47.2659V47.2951H123.734C123.649 47.2951 123.575 47.1171 123.409 46.8784H123.309V47.179C123.309 47.2385 123.33 47.235 123.441 47.2504V47.2951L123.004 47.2951ZM123.309 46.8189H123.415C123.532 46.8189 123.587 46.7303 123.587 46.588C123.587 46.4439 123.502 46.3933 123.409 46.3933H123.309V46.8189Z" fill="#211E1F"/>
</svg>
