<svg width="133" height="84" viewBox="0 0 133 84" fill="none" xmlns="http://www.w3.org/2000/svg">
<rect width="133" height="84" rx="8" fill="white"/>
<path fill-rule="evenodd" clip-rule="evenodd" d="M29.7036 29.9417C30.9455 29.5364 32.2437 29.3311 33.5498 29.3334C39.4203 29.3334 44.3207 33.4233 45.4427 38.863L53.7612 37.1975C51.8526 27.9532 43.5312 21 33.5512 21C31.2638 21 29.0688 21.365 27.0112 22.0399L29.7036 29.9417Z" fill="#FFCA05"/>
<path fill-rule="evenodd" clip-rule="evenodd" d="M20.0446 56.7246L25.7388 50.4202C23.1968 48.2145 21.5933 44.9965 21.5933 41.412C21.5933 37.8275 23.1939 34.6109 25.7344 32.408L20.0418 26.1037C15.7242 29.8489 13 35.3191 13 41.412C13 47.5063 15.7242 52.9779 20.0446 56.7246Z" fill="#00A4DF"/>
<path fill-rule="evenodd" clip-rule="evenodd" d="M45.4442 43.9653C44.3178 49.4036 39.4232 53.4906 33.5585 53.4906C32.2501 53.4933 30.9497 53.2865 29.7065 52.878L27.0112 60.7885C29.0674 61.4634 31.2681 61.8269 33.557 61.8269C43.5254 61.8269 51.8454 54.8795 53.7612 45.641L45.4442 43.9653Z" fill="#EE4123"/>
<path fill-rule="evenodd" clip-rule="evenodd" d="M77.3099 48.1189L77.3041 48.1247L77.0684 47.9654C76.3888 49.0719 75.3333 49.9698 73.9958 50.552C71.4553 51.6629 69.1013 51.3776 67.411 49.8858L67.2562 50.1234C67.2533 50.1205 67.2533 50.119 67.2505 50.119L64.3672 54.458C65.0843 54.9592 65.8526 55.3826 66.6591 55.7209C69.8445 57.0534 73.1022 56.9911 76.3122 55.5862C78.6358 54.5739 80.4563 53.03 81.7027 51.0734L77.3099 48.1189ZM68.3089 37.4118C65.6267 38.5705 64.2429 41.1035 64.5277 44.0725L75.8929 39.1512C73.9379 36.8398 71.396 36.0751 68.3089 37.4118ZM60.7639 50.6317C60.4417 50.0939 60.1539 49.5361 59.9022 48.9618C58.5907 45.8987 58.5285 42.7299 59.6346 39.6871C60.8521 36.3502 63.1772 33.7955 66.1833 32.4949C69.9616 30.8584 74.1389 31.1814 77.7596 33.3436C80.0601 34.6702 81.6911 36.721 82.9288 39.619C83.0879 39.9898 83.2253 40.3866 83.3612 40.724L60.7639 50.6317ZM91.2589 26.1037V50.2305L94.988 51.7512L92.8697 56.7246L88.7546 55.0011C87.8306 54.5971 87.2016 53.9816 86.7259 53.2864C86.2704 52.5767 85.9306 51.6064 85.9306 50.2957V26.1037H91.2589ZM100.918 44.084C100.916 45.057 101.121 46.0192 101.52 46.9063C101.919 47.7934 102.503 48.585 103.231 49.2283L99.4112 53.5239C98.0803 52.3385 97.0159 50.8834 96.2885 49.255C95.5611 47.6267 95.1874 45.8622 95.1919 44.0783C95.1904 42.2953 95.5668 40.5323 96.2964 38.9059C97.026 37.2796 98.0921 35.827 99.4242 34.6442L103.249 38.9354C102.516 39.5775 101.929 40.3691 101.527 41.2571C101.125 42.1451 100.917 43.109 100.918 44.084ZM107.714 50.9315C110.999 50.9344 113.74 48.5925 114.38 45.4773L119.994 46.6301C118.823 52.3783 113.765 56.7014 107.708 56.6956C106.356 56.6952 105.013 56.4746 103.732 56.0425L105.559 50.5781C106.236 50.804 106.962 50.93 107.714 50.9315ZM107.731 31.484C113.793 31.4884 118.845 35.8289 120 41.5843L114.384 42.7285C114.076 41.1855 113.245 39.7968 112.031 38.7977C110.818 37.7986 109.296 37.2506 107.725 37.2467C106.993 37.2469 106.265 37.3652 105.569 37.5972L103.759 32.1271C105.04 31.6987 106.381 31.4815 107.731 31.484Z" fill="black"/>
</svg>
