<svg width="133" height="84" viewBox="0 0 133 84" fill="none" xmlns="http://www.w3.org/2000/svg">
<rect width="133" height="84" rx="8" fill="white"/>
<path d="M57.5213 65.8416L12.0775 65.8579V65.7483C12.0775 65.688 12.15 65.2971 12.2386 64.8797C12.3271 64.4623 12.4649 63.7983 12.5446 63.4042C12.6243 63.0101 12.7607 62.3404 12.8476 61.916C12.9345 61.4916 13.0788 60.7847 13.1684 60.3452C13.2579 59.9056 13.3982 59.2111 13.4801 58.8018C13.562 58.3926 13.6988 57.7229 13.784 57.3137C13.8693 56.9044 14.0146 56.1975 14.107 55.7428C14.1993 55.2881 14.3398 54.5936 14.419 54.1995C14.4983 53.8054 14.6242 53.1977 14.6989 52.8491C14.7736 52.5005 14.8688 52.0292 14.9104 51.8018C14.9521 51.5745 15.087 50.9048 15.2102 50.3137C15.3333 49.7225 15.4693 49.0528 15.5124 48.8255C15.5554 48.5981 15.692 47.9284 15.8159 47.3373C15.9398 46.7461 16.0759 46.0764 16.1184 45.8491C16.1608 45.6217 16.2977 44.952 16.4226 44.3609C16.5474 43.7698 16.6821 43.1125 16.722 42.9003C16.7618 42.6881 16.8709 42.1424 16.9645 41.6877C17.058 41.2329 17.235 40.3772 17.3578 39.7861C17.4805 39.195 17.6906 38.1656 17.8244 37.4987C17.9583 36.8318 18.1183 36.0381 18.18 35.7349C18.2417 35.4318 18.3532 34.8861 18.4278 34.5223C18.5024 34.1585 18.6379 33.5013 18.7289 33.0617C18.8199 32.6221 18.968 31.9028 19.0579 31.4633C19.1479 31.0237 19.2865 30.3416 19.366 29.9475C19.4454 29.5534 19.5811 28.8961 19.6674 28.4869C19.7537 28.0776 19.9021 27.3583 19.9973 26.8885C20.0924 26.4186 20.2518 25.6993 20.3514 25.29C20.4511 24.8808 20.5919 24.3847 20.6645 24.1877C20.737 23.9906 20.9373 23.5635 21.1095 23.2384L21.4226 22.6475L21.7073 22.2739C21.8639 22.0684 22.1434 21.7437 22.3285 21.5523C22.5136 21.3609 22.8259 21.0729 23.0225 20.9124C23.2191 20.7518 23.5038 20.535 23.655 20.4307C23.8063 20.3264 24.1033 20.1438 24.315 20.025C24.5268 19.9061 24.8238 19.7504 24.975 19.679C25.1263 19.6077 25.4356 19.4774 25.6625 19.3895C25.8894 19.3017 26.3225 19.1544 26.625 19.0623C26.9275 18.9702 27.4953 18.8313 27.8868 18.7537C28.2783 18.6761 28.8971 18.5725 29.2618 18.5234L29.925 18.4342L75.3963 18.4168L120.868 18.3995V18.509C120.868 18.5693 120.795 18.9601 120.705 19.3775C120.616 19.795 120.467 20.5085 120.374 20.9633C120.281 21.418 120.146 22.0753 120.073 22.4239C120 22.7725 119.862 23.4422 119.766 23.9121C119.671 24.382 119.523 25.1012 119.439 25.5105C119.355 25.9198 119.218 26.5894 119.136 26.9987C119.053 27.4079 118.916 28.0776 118.831 28.4869C118.746 28.8961 118.613 29.541 118.537 29.9199C118.461 30.2989 118.322 30.981 118.23 31.4357C118.137 31.8904 117.989 32.6097 117.9 33.0341C117.81 33.4585 117.675 34.1158 117.598 34.4948C117.521 34.8737 117.383 35.5558 117.29 36.0105C117.198 36.4652 117.05 37.1845 116.961 37.6089C116.872 38.0333 116.739 38.6782 116.666 39.042C116.592 39.4058 116.455 40.0879 116.36 40.5577C116.264 41.0276 116.126 41.7097 116.051 42.0735C115.977 42.4373 115.844 43.0822 115.756 43.5066C115.668 43.931 115.518 44.6627 115.422 45.1326C115.326 45.6024 115.189 46.2721 115.117 46.6207C115.045 46.9694 114.91 47.6266 114.818 48.0814C114.725 48.5361 114.578 49.2554 114.491 49.6798C114.403 50.1042 114.266 50.7739 114.186 51.168C114.106 51.5621 113.967 52.2442 113.877 52.6837C113.786 53.1233 113.639 53.8426 113.55 54.2822C113.46 54.7217 113.325 55.379 113.251 55.7428C113.176 56.1066 113.039 56.7763 112.947 57.231C112.855 57.6857 112.705 58.4023 112.614 58.8234L112.449 59.589L112.251 60.1187C112.143 60.41 111.98 60.7971 111.889 60.979C111.798 61.1609 111.613 61.4818 111.477 61.6921C111.342 61.9025 111.153 62.172 111.058 62.2911C110.963 62.4101 110.676 62.7175 110.421 62.9741L109.957 63.4407L109.511 63.7586C109.265 63.9335 109.001 64.1113 108.923 64.1538C108.846 64.1962 108.55 64.3475 108.266 64.49C107.982 64.6324 107.581 64.8137 107.375 64.8928C107.169 64.9719 106.761 65.1066 106.468 65.1921C106.175 65.2776 105.861 65.3618 105.77 65.3792C105.679 65.3966 105.364 65.4619 105.07 65.5244C104.776 65.5868 104.182 65.6801 103.75 65.7316L102.965 65.8254L57.5213 65.8416ZM41.3532 54.0617H42.5357L42.5691 53.9745C42.5875 53.9265 42.6025 53.8138 42.6025 53.724C42.6025 53.6341 42.6415 53.3075 42.6891 52.9982C42.7368 52.6888 42.8486 51.9768 42.9376 51.416C43.0266 50.8552 43.1599 50.0119 43.2338 49.542C43.3077 49.0721 43.3978 48.4706 43.4342 48.2054C43.4705 47.9401 43.5148 47.7231 43.5327 47.7231C43.5506 47.7231 43.627 47.8403 43.7026 47.9836L43.84 48.244L44.1449 48.5519L44.4498 48.8598L44.8251 49.0103L45.2004 49.1609L45.6477 49.219L46.095 49.2771L46.6628 49.2422L47.2305 49.2073L47.8453 49.0479L48.46 48.8884L48.79 48.7375C48.9715 48.6545 49.2933 48.4734 49.505 48.3352L49.89 48.0839L50.249 47.7244C50.4464 47.5266 50.7248 47.2095 50.8677 47.0197C51.0106 46.8299 51.1275 46.6608 51.1275 46.6438C51.1275 46.6269 51.1977 46.5094 51.2835 46.3826C51.3693 46.2559 51.5449 45.9042 51.6737 45.6011C51.8025 45.2979 52.0038 44.7522 52.1211 44.3885L52.3342 43.727L52.4444 43.1541C52.505 42.839 52.583 42.3181 52.6176 41.9966L52.6807 41.4121L52.6443 40.916L52.6079 40.42L52.4931 39.9239L52.3783 39.4278L52.1925 39.0564L52.0068 38.685L51.6479 38.3038L51.289 37.9226L50.8645 37.7027L50.44 37.4828L49.9725 37.3706L49.505 37.2584L49.0375 37.224L48.57 37.1896L48.0492 37.2496L47.5285 37.3096L47.1034 37.4183L46.6783 37.5271L46.3091 37.6984C46.106 37.7926 45.8105 37.9526 45.6524 38.0539C45.4943 38.1553 45.3312 38.2719 45.29 38.3131C45.2487 38.3542 45.15 38.4305 45.0706 38.4825L44.9262 38.5772L45.0272 38.093C45.0827 37.8268 45.1291 37.5779 45.1303 37.54L45.1325 37.4711H44.1242H43.1158L42.939 38.5873C42.8418 39.2012 42.6882 40.1499 42.5978 40.6955C42.5074 41.2412 42.371 42.0597 42.2948 42.5144C42.2186 42.9692 42.0826 43.7753 41.9927 44.3058C41.9027 44.8363 41.754 45.6796 41.6622 46.1798C41.5705 46.68 41.436 47.4117 41.3635 47.8058C41.2909 48.1999 41.1544 48.944 41.0601 49.4593C40.9657 49.9747 40.8141 50.7932 40.7232 51.2782C40.6322 51.7633 40.4842 52.5322 40.3943 52.9869C40.3043 53.4416 40.2172 53.8695 40.2006 53.9377L40.1706 54.0617H41.3532ZM46.4442 47.689L45.985 47.7167L45.6848 47.6636L45.3847 47.6105L45.0798 47.471L44.775 47.3315L44.562 47.1277L44.349 46.9239L44.2261 46.6483C44.1585 46.4967 44.0717 46.2392 44.0331 46.0761L43.9631 45.7795L43.9911 45.3044L44.0192 44.8294L44.1609 44.0853C44.2389 43.6761 44.3788 42.9072 44.4719 42.3766C44.565 41.8461 44.706 41.0688 44.7852 40.6493L44.9292 39.8865L45.2445 39.6235C45.4179 39.4789 45.6925 39.2851 45.8549 39.1928L46.15 39.025L46.535 38.9056L46.92 38.7861L47.415 38.757L47.91 38.7279L48.3131 38.814L48.7161 38.9001L49.0006 39.0314L49.285 39.1626L49.5235 39.403L49.762 39.6433L49.8907 39.8977C49.9615 40.0377 50.0609 40.3117 50.1116 40.5066L50.2038 40.8609L50.1756 41.9081L50.1473 42.9554L50.0061 43.5744C49.9284 43.9148 49.7805 44.4357 49.6774 44.7319L49.4901 45.2703L49.2606 45.7062C49.1343 45.946 48.9397 46.27 48.828 46.4262C48.7164 46.5824 48.5384 46.7848 48.4325 46.8759C48.3266 46.967 48.1493 47.1094 48.0385 47.1924L47.837 47.3431L47.3702 47.5022L46.9034 47.6613L46.4442 47.689ZM57.865 49.2043L58.47 49.2112L59.075 49.1559C59.4078 49.1255 59.9523 49.0622 60.285 49.0152C60.6178 48.9682 61.1926 48.8631 61.5624 48.7815L62.2348 48.6333L62.2683 48.3849C62.2867 48.2483 62.3622 47.8416 62.4361 47.4811L62.5704 46.8257L62.5408 46.796L62.5111 46.7663L62.3056 46.8658C62.1925 46.9205 61.8404 47.0511 61.523 47.1559L60.9461 47.3464L60.3405 47.464L59.735 47.5815L58.7725 47.5834L57.81 47.5853L57.48 47.4797C57.2985 47.4216 57.0316 47.3153 56.8868 47.2435L56.6236 47.1129L56.4063 46.9162L56.1891 46.7195L56.0196 46.4226L55.85 46.1257L55.7438 45.7533L55.6375 45.3809L55.6367 44.6918L55.636 44.0026L55.7303 43.3878L55.8247 42.773L56.6523 42.7343L57.48 42.6955L60.5394 42.7152L63.5989 42.7349L63.6913 42.3422C63.7421 42.1262 63.8197 41.6797 63.8639 41.3501L63.9441 40.7506L63.9458 40.2464L63.9475 39.7422L63.8604 39.3657L63.7733 38.9893L63.6292 38.7401C63.55 38.603 63.4104 38.4043 63.319 38.2985C63.2277 38.1928 63.0645 38.0437 62.9564 37.9673C62.8484 37.8908 62.6362 37.7623 62.485 37.6817L62.21 37.5352L61.7295 37.4192L61.249 37.3031L60.657 37.2464L60.065 37.1897L59.515 37.2255L58.965 37.2614L58.305 37.3884L57.645 37.5154L57.2325 37.6807C57.0056 37.7716 56.6591 37.9374 56.4625 38.0491C56.2659 38.1608 55.9936 38.3427 55.8575 38.4532C55.7214 38.5637 55.4857 38.7786 55.3338 38.9308C55.1818 39.0829 54.9571 39.3561 54.8343 39.538C54.7116 39.7199 54.5234 40.0424 54.4161 40.2546C54.3089 40.4668 54.1692 40.7644 54.1056 40.916C54.042 41.0676 53.9266 41.3776 53.8489 41.605C53.7713 41.8323 53.6494 42.2664 53.5779 42.5695C53.5064 42.8727 53.4084 43.3717 53.3602 43.6785L53.2725 44.2363L53.2733 45.0564L53.2741 45.8766L53.3577 46.2349C53.4037 46.432 53.4916 46.7296 53.5531 46.8963C53.6145 47.0631 53.7282 47.3111 53.8057 47.4475C53.8831 47.5839 54.0485 47.8036 54.1732 47.9356C54.298 48.0676 54.5238 48.268 54.675 48.3808C54.8263 48.4937 55.0955 48.6523 55.2734 48.7335L55.5967 48.881L56.0476 48.9902C56.2956 49.0503 56.6698 49.1215 56.8792 49.1484C57.0887 49.1753 57.5323 49.2005 57.865 49.2043ZM58.901 41.4396C57.3783 41.4396 56.1325 41.4287 56.1325 41.4154C56.1325 41.402 56.1975 41.2098 56.2769 40.9882C56.3563 40.7666 56.4957 40.4368 56.5868 40.2553L56.7523 39.9252L57.1162 39.5626L57.48 39.1999L57.8375 39.0286C58.0341 38.9344 58.294 38.8318 58.415 38.8006C58.536 38.7695 58.8825 38.7281 59.185 38.7087L59.735 38.6735L60.1574 38.7279L60.5797 38.7823L60.8867 38.9231L61.1936 39.064L61.362 39.2459C61.4546 39.346 61.5649 39.4933 61.6072 39.5733L61.6841 39.7189L61.7348 40.0419L61.7856 40.3648L61.7275 40.9022L61.6695 41.4396H58.901ZM75.3553 49.2046L75.9607 49.2113L76.6478 49.1297C77.0258 49.0848 77.5289 49.0104 77.7658 48.9644C78.0028 48.9183 78.3864 48.827 78.6183 48.7613C78.8502 48.6957 79.0601 48.6247 79.0846 48.6036C79.1091 48.5825 79.1747 48.3323 79.2302 48.0477C79.2858 47.7631 79.3558 47.3814 79.3858 47.1995C79.4158 47.0176 79.4313 46.859 79.4202 46.8471C79.4092 46.8352 79.3686 46.8506 79.3301 46.8813C79.2915 46.912 79.0217 47.0258 78.7304 47.1342L78.2008 47.3313L77.4466 47.4777L76.6924 47.6242L76.0512 47.6022L75.41 47.5803L75.0458 47.4537L74.6816 47.3272L74.4001 47.0804L74.1187 46.8337L73.932 46.493L73.7453 46.1522L73.6564 45.6964L73.5675 45.2405L73.5681 44.6491L73.5686 44.0577L73.6767 43.3412L73.7847 42.6247L73.899 42.2388C73.9619 42.0266 74.0331 41.7786 74.0571 41.6877C74.0812 41.5967 74.1821 41.3363 74.2813 41.1089C74.3805 40.8816 74.5575 40.5302 74.6745 40.328L74.8874 39.9605L75.1489 39.689L75.4104 39.4175L75.6873 39.2454L75.9642 39.0733L76.3198 38.9635C76.5154 38.9032 76.861 38.8248 77.0879 38.7894L77.5004 38.7249L78.1054 38.7554L78.7104 38.7858L79.4254 38.9292L80.1404 39.0726L80.4312 39.1813C80.5911 39.2411 80.729 39.29 80.7375 39.29C80.7461 39.29 80.7844 39.0854 80.8228 38.8353C80.8611 38.5852 80.9294 38.1737 80.9744 37.9209C81.0195 37.6681 81.0455 37.4504 81.0323 37.4371C81.019 37.4238 80.8041 37.3896 80.5547 37.3611C80.3053 37.3326 79.6274 37.282 79.0483 37.2486L77.9954 37.188L77.2529 37.2451L76.5104 37.3022L75.9604 37.418L75.4104 37.5338L75.0562 37.6758C74.8614 37.7539 74.576 37.8948 74.4221 37.9889C74.2681 38.0831 74.0722 38.2097 73.9866 38.2703C73.9011 38.331 73.6415 38.5675 73.4098 38.796L72.9885 39.2115L72.7534 39.5567C72.624 39.7466 72.4003 40.1425 72.2562 40.4365L71.9942 40.9711L71.7933 41.5499C71.6829 41.8682 71.5286 42.389 71.4506 42.7074L71.3087 43.2861L71.2572 43.8097L71.2057 44.3333L71.2063 45.0223L71.2068 45.7113L71.2588 46.1121L71.3107 46.5129L71.4754 46.9252L71.6402 47.3375L71.8305 47.6356L72.0207 47.9337L72.3233 48.2321L72.6259 48.5305L72.9459 48.7L73.2659 48.8695L73.6864 48.9865C73.9177 49.0509 74.2518 49.1248 74.4289 49.1507C74.606 49.1766 75.0233 49.2009 75.3563 49.2046H75.3553ZM84.4025 49.1842L85.145 49.1629L85.6125 49.043L86.08 48.9231L86.3825 48.7797C86.5489 48.7009 86.8211 48.5453 86.9875 48.434C87.1539 48.3226 87.4114 48.1109 87.5598 47.9635C87.7082 47.8161 87.9282 47.5647 88.0487 47.4047C88.1693 47.2448 88.2752 47.1212 88.2841 47.1301C88.2929 47.139 88.2652 47.3938 88.2224 47.6965C88.1796 47.9991 88.1442 48.4017 88.1436 48.5912L88.1425 48.9357H89.1519H90.1614L90.1922 48.1503L90.2231 47.3648L90.3671 46.3451C90.4463 45.7843 90.5743 44.9534 90.6515 44.4987C90.7286 44.044 90.8627 43.2751 90.9495 42.79C91.0363 42.305 91.1738 41.5485 91.255 41.1089L91.4027 40.3097L91.4077 39.6194L91.4126 38.929L91.2568 38.61L91.1011 38.2909L90.8899 38.0877L90.6786 37.8845L90.3318 37.7084L89.9851 37.5323L89.4682 37.4171L88.9514 37.3019L88.2398 37.2476L87.5283 37.1934L86.6117 37.2502C86.1075 37.2815 85.3981 37.3432 85.0351 37.3874L84.3751 37.4677L83.9253 37.4694L83.4755 37.4711L83.41 37.788C83.374 37.9624 83.274 38.3765 83.1877 38.7083C83.1015 39.0402 83.0389 39.3197 83.0487 39.3295C83.0584 39.3393 83.299 39.2846 83.5832 39.2079C83.8675 39.1313 84.4713 39.0052 84.9251 38.9277L85.7501 38.7869L86.4926 38.7563L87.2351 38.7256L87.7133 38.8096L88.1916 38.8936L88.5108 39.0515L88.8301 39.2094L89.0088 39.4764L89.1876 39.7434L89.185 40.1643L89.1825 40.5853L89.0878 41.0472L88.993 41.5091L87.014 41.5163L85.035 41.5234L84.3873 41.7014C84.0311 41.7993 83.6367 41.9293 83.5108 41.9902C83.3849 42.0512 83.259 42.101 83.2309 42.101C83.2029 42.101 82.991 42.2188 82.76 42.3627L82.34 42.6244L82.0093 42.9552C81.8274 43.1372 81.595 43.4101 81.4928 43.5617C81.3907 43.7132 81.2247 44.0299 81.124 44.2653L80.9409 44.6934L80.8569 45.1748L80.7729 45.6562V46.1611V46.6661L80.8532 47.0866L80.9334 47.5071L81.0824 47.7813C81.1643 47.9321 81.3146 48.153 81.4164 48.2722L81.6015 48.489L81.9305 48.6892L82.2595 48.8895L82.636 48.9963C82.8431 49.055 83.1583 49.1261 83.3365 49.1543L83.6604 49.2055L84.4029 49.1842L84.4025 49.1842ZM85.09 47.643L84.65 47.666L84.3586 47.5916C84.1983 47.5507 83.9551 47.4594 83.8181 47.3888L83.5691 47.2605L83.4332 47.0986C83.3584 47.0096 83.2442 46.8346 83.1794 46.7098L83.0615 46.4829L83.0384 45.9531L83.0153 45.4232L83.1085 45.1018C83.1598 44.9251 83.2801 44.6183 83.3759 44.4202L83.55 44.06L83.8834 43.7282L84.2168 43.3963L84.5709 43.2255L84.925 43.0546L85.365 42.9499L85.805 42.8451H87.18H88.555L88.642 42.8812L88.729 42.9172L88.6558 43.3497C88.6155 43.5876 88.5195 44.0178 88.4424 44.3058C88.3652 44.5938 88.2291 45.0171 88.1398 45.2466C88.0505 45.476 87.9775 45.6788 87.9775 45.6973C87.9775 45.7158 87.8871 45.883 87.7766 46.0689L87.5758 46.4068L87.246 46.7342C87.0646 46.9143 86.8962 47.0617 86.8718 47.0617C86.8474 47.0617 86.7362 47.1237 86.6247 47.1995L86.422 47.3374L85.976 47.4787L85.53 47.62L85.09 47.643ZM102.993 49.2039L103.515 49.2105L104.01 49.13C104.282 49.0857 104.629 49.0144 104.78 48.9715C104.931 48.9286 105.204 48.8172 105.385 48.724L105.715 48.5546L105.999 48.3042L106.283 48.0538L106.582 47.6542C106.746 47.4344 106.895 47.2174 106.913 47.1719L106.945 47.0892L106.917 47.3648C106.902 47.5164 106.867 47.7644 106.841 47.916C106.814 48.0676 106.776 48.359 106.756 48.5637L106.72 48.9357H107.799H108.878V48.5637V48.1916L109.042 46.7861C109.132 46.0131 109.266 44.9837 109.339 44.4987C109.412 44.0137 109.525 43.3192 109.589 42.9554C109.654 42.5916 109.769 41.9343 109.844 41.4948C109.919 41.0552 110.055 40.2863 110.146 39.7861C110.237 39.2859 110.383 38.4922 110.47 38.0223C110.557 37.5524 110.692 36.8207 110.771 36.3963C110.849 35.9719 110.989 35.2278 111.082 34.7428C111.175 34.2577 111.312 33.5757 111.385 33.227C111.458 32.8784 111.518 32.5746 111.517 32.5518V32.5105H110.34H109.163L109.128 32.855C109.109 33.0445 109.019 33.6707 108.928 34.2467C108.837 34.8227 108.689 35.7404 108.598 36.2861C108.508 36.8318 108.421 37.3609 108.405 37.462L108.376 37.6457L108.283 37.6061C108.232 37.5843 107.955 37.5074 107.667 37.435L107.145 37.3036L106.43 37.2478L105.715 37.192L105.11 37.2485L104.505 37.3049L103.955 37.4443L103.405 37.5836L102.882 37.839L102.36 38.0944L101.975 38.38L101.59 38.6657L101.257 39.0229C101.075 39.2194 100.81 39.5444 100.67 39.7451L100.416 40.1101L100.117 40.7335C99.9524 41.0764 99.7523 41.5306 99.6721 41.7428C99.592 41.955 99.4507 42.4254 99.3581 42.7881L99.1897 43.4476L99.1068 44.3039L99.0238 45.1601L99.0861 45.8491L99.1484 46.5381L99.222 46.7861C99.2625 46.9225 99.3479 47.1656 99.4118 47.3262L99.5279 47.6183L99.7397 47.9055L99.9514 48.1927L100.193 48.3912L100.435 48.5896L100.765 48.7538C100.946 48.8441 101.251 48.9609 101.442 49.0132C101.632 49.0655 101.942 49.1284 102.129 49.1528C102.317 49.1773 102.705 49.2003 102.992 49.2039H102.993ZM103.93 47.6401L103.515 47.6622L103.235 47.6117C103.081 47.5838 102.834 47.5093 102.687 47.446L102.419 47.3309L102.193 47.1458L101.968 46.9607L101.8 46.6391L101.633 46.3176L101.556 45.9593L101.48 45.6011L101.486 44.8845L101.493 44.168L101.582 43.5341L101.67 42.9003L101.808 42.4593C101.884 42.2168 101.946 41.988 101.947 41.9509C101.947 41.9137 102.022 41.7153 102.113 41.5099C102.204 41.3045 102.356 40.9877 102.451 40.8058C102.546 40.6239 102.723 40.3403 102.845 40.1757C102.967 40.011 103.184 39.763 103.327 39.6245C103.47 39.486 103.698 39.3044 103.834 39.2209L104.08 39.069L104.513 38.9191L104.945 38.7691L105.853 38.7685H106.76L107.283 38.9138C107.57 38.9937 107.875 39.0864 107.961 39.1197L108.116 39.1804L108.086 39.3317C108.069 39.4149 108.004 39.7806 107.94 40.1444C107.877 40.5081 107.753 41.2026 107.664 41.6877C107.575 42.1727 107.438 42.9044 107.36 43.3137C107.282 43.7229 107.169 44.2438 107.109 44.4711C107.048 44.6985 106.963 45.0134 106.92 45.171C106.876 45.3285 106.772 45.6013 106.689 45.7773C106.606 45.9532 106.46 46.2087 106.365 46.3451C106.271 46.4816 106.11 46.6705 106.009 46.7651C105.908 46.8596 105.689 47.0276 105.523 47.1385L105.22 47.3399L104.783 47.479L104.346 47.618L103.93 47.6401ZM22.9839 48.9357H24.3202L24.4161 48.3432C24.4688 48.0173 24.5718 47.391 24.645 46.9514C24.7181 46.5119 24.8542 45.6934 24.9475 45.1326C25.0407 44.5717 25.1805 43.7408 25.2581 43.2861C25.3357 42.8314 25.459 42.126 25.5321 41.7186C25.6052 41.3112 25.6789 40.9639 25.6958 40.9469L25.7266 40.916H29.32H32.9133L32.9532 40.956L32.9931 40.996L32.9308 41.3143C32.8965 41.4893 32.7952 42.0294 32.7055 42.5144C32.6159 42.9995 32.4652 43.818 32.3707 44.3333C32.2762 44.8487 32.1395 45.5804 32.067 45.9593C31.9944 46.3383 31.8477 47.132 31.7408 47.7231C31.6339 48.3142 31.5467 48.8289 31.547 48.8668L31.5475 48.9357H32.8894H34.2313L34.2906 48.5912C34.3233 48.4017 34.3758 48.0607 34.4074 47.8333C34.439 47.606 34.515 47.1223 34.5765 46.7585C34.6379 46.3948 34.7606 45.6755 34.8492 45.1601C34.9378 44.6448 35.0861 43.7642 35.1787 43.2034C35.2714 42.6426 35.4088 41.8241 35.4841 41.3845C35.5595 40.945 35.6937 40.2009 35.7824 39.731C35.8712 39.2611 36.0189 38.4674 36.1109 37.9672C36.2028 37.467 36.3404 36.7105 36.4168 36.2861C36.4932 35.8617 36.6325 35.0928 36.7263 34.5774C36.8201 34.0621 36.9386 33.4606 36.9896 33.2408L37.0823 32.8412H35.7237H34.365L34.3281 33.103C34.3078 33.247 34.2421 33.6501 34.1822 33.9987C34.1223 34.3473 34.0134 34.9674 33.9401 35.3766C33.8668 35.7859 33.7329 36.5672 33.6426 37.1129C33.5522 37.6585 33.437 38.3809 33.3866 38.7181L33.295 39.3311L31.3005 39.3716L29.3061 39.412L27.6356 39.3723C26.7168 39.3504 25.96 39.3282 25.9537 39.3229C25.9475 39.3176 25.9788 39.1034 26.0233 38.8469C26.0677 38.5904 26.1519 38.145 26.2102 37.857C26.2686 37.569 26.3792 36.9985 26.4561 36.5892C26.5329 36.18 26.62 35.6715 26.6495 35.4593C26.6791 35.2471 26.741 34.8937 26.7871 34.6739C26.8333 34.4541 26.9208 33.9912 26.9817 33.6451C27.0426 33.2991 27.1075 32.9766 27.1259 32.9286L27.1593 32.8412H25.8116H24.464L24.3777 33.3235C24.3302 33.5888 24.2669 33.967 24.237 34.164C24.2071 34.3611 24.1067 34.9936 24.0139 35.5696C23.9211 36.1455 23.7841 37.0013 23.7095 37.4711C23.6349 37.941 23.499 38.7967 23.4075 39.3727C23.316 39.9487 23.165 40.8416 23.072 41.357C22.979 41.8723 22.8444 42.604 22.7728 42.9829C22.7012 43.3619 22.5649 44.0812 22.4697 44.5814C22.3746 45.0816 22.2358 45.7885 22.1613 46.1522C22.0869 46.516 22.0045 46.9377 21.9783 47.0892C21.9522 47.2408 21.8671 47.678 21.7892 48.0607C21.7113 48.4435 21.6475 48.7969 21.6475 48.8462V48.9357H22.9839ZM37.7777 48.9357H38.9607L38.9941 48.8485C39.0125 48.8006 39.0275 48.6748 39.0275 48.569C39.0275 48.4632 39.1019 47.9134 39.1928 47.3471C39.2837 46.7809 39.434 45.8587 39.5267 45.2979C39.6194 44.7371 39.7562 43.9186 39.8309 43.479C39.9055 43.0394 40.0382 42.3077 40.1257 41.853C40.2133 41.3983 40.3478 40.6914 40.4245 40.2822C40.5012 39.8729 40.6521 39.0943 40.7598 38.5519C40.8675 38.0095 40.9691 37.544 40.9855 37.5174L41.0153 37.469L39.819 37.4838L38.6226 37.4987L38.523 38.2152C38.4682 38.6093 38.3484 39.3906 38.2567 39.9514C38.1651 40.5123 38.0265 41.368 37.9487 41.853C37.871 42.3381 37.7353 43.1194 37.6473 43.5892C37.5593 44.0591 37.4245 44.7784 37.3477 45.1877C37.2708 45.5969 37.133 46.3162 37.0413 46.7861C36.9497 47.256 36.8267 47.8761 36.768 48.164C36.7094 48.452 36.6464 48.7435 36.628 48.8117L36.5947 48.9357H37.7777ZM65.4468 48.9357H66.621L66.6563 48.4378C66.6757 48.1639 66.7421 47.612 66.804 47.2114C66.8658 46.8107 66.9924 46.0117 67.0853 45.4357C67.1781 44.8597 67.3508 43.901 67.4689 43.3052C67.587 42.7095 67.7205 42.1173 67.7656 41.9892C67.8106 41.8612 67.8475 41.7225 67.8475 41.681C67.8475 41.6394 67.9358 41.4131 68.0437 41.1781C68.1516 40.943 68.3527 40.583 68.4906 40.3782L68.7413 40.0057L69.0768 39.6943L69.4124 39.383L69.8262 39.1849L70.24 38.9869L70.8725 38.9902L71.505 38.9935L71.816 39.0866C71.987 39.1378 72.1417 39.1798 72.1597 39.1798C72.1778 39.1798 72.1925 39.1212 72.1925 39.0495C72.1925 38.9779 72.2544 38.6149 72.33 38.2427C72.4056 37.8706 72.4675 37.5505 72.4675 37.5313C72.4675 37.5121 72.2881 37.4417 72.0688 37.3749C71.8494 37.3081 71.5463 37.2381 71.395 37.2193L71.12 37.1853L70.7625 37.2487C70.5659 37.2835 70.2735 37.3605 70.1128 37.4197C69.9521 37.4788 69.6867 37.6131 69.5231 37.718C69.3595 37.8228 69.105 38.0272 68.9575 38.1722C68.8101 38.3171 68.5621 38.6093 68.4064 38.8215C68.2507 39.0337 68.0879 39.2569 68.0446 39.3176L67.9659 39.4278L68.0137 39.2073C68.04 39.0861 68.1132 38.6892 68.1765 38.3254C68.2397 37.9616 68.3046 37.6206 68.3207 37.5676L68.3499 37.4711H67.3012H66.2525V37.604C66.2525 37.677 66.1906 38.1173 66.115 38.5823C66.0393 39.0473 65.9146 39.8246 65.8377 40.3097C65.7609 40.7947 65.6246 41.638 65.5348 42.1837C65.445 42.7294 65.3086 43.5107 65.2317 43.9199C65.1549 44.3292 65.0184 45.0485 64.9284 45.5183C64.8385 45.9882 64.6891 46.7571 64.5965 47.227C64.5039 47.6969 64.3931 48.2518 64.3503 48.4601C64.3075 48.6685 64.2725 48.8607 64.2725 48.8873V48.9357L65.4468 48.9357ZM93.3218 48.9357H94.5225V48.5675V48.1992L94.6609 47.286C94.737 46.7837 94.8625 45.9883 94.9399 45.5184C95.0172 45.0485 95.1136 44.4532 95.1541 44.1955C95.1946 43.9379 95.3019 43.3798 95.3925 42.9554C95.4832 42.531 95.5964 42.0721 95.6441 41.9357C95.6918 41.7993 95.7313 41.6562 95.7317 41.6176C95.7322 41.5791 95.8345 41.3315 95.9591 41.0673L96.1858 40.587L96.4848 40.1888L96.7838 39.7907L97.111 39.5442C97.291 39.4086 97.5804 39.2287 97.7541 39.1444L98.07 38.991L98.7575 38.9958L99.445 39.0005L99.7156 39.0876L99.9863 39.1747L100.032 39.1465L100.078 39.1182L100.08 38.9423C100.081 38.8456 100.14 38.4857 100.211 38.1425L100.339 37.5185L100.195 37.4618C100.115 37.4306 99.9263 37.366 99.775 37.3183L99.5 37.2315L99.005 37.2327L98.51 37.234L98.1066 37.3762L97.7032 37.5185L97.4003 37.7015L97.0974 37.8845L96.7036 38.2979L96.3098 38.7113L96.0982 39.032C95.9819 39.2084 95.8794 39.3448 95.8706 39.3351C95.8617 39.3255 95.925 38.958 96.0111 38.5184C96.0973 38.0788 96.1688 37.6634 96.1701 37.5952L96.1725 37.4712H95.155H94.1375V37.5063C94.1375 37.5256 94.0868 37.879 94.0248 38.2917C93.9628 38.7044 93.8383 39.5009 93.7482 40.0617C93.658 40.6225 93.5101 41.5278 93.4195 42.0735C93.3288 42.6192 93.1922 43.4005 93.1158 43.8097C93.0395 44.219 92.9038 44.9383 92.8144 45.4082C92.725 45.878 92.5781 46.6345 92.488 47.0893C92.3978 47.544 92.2784 48.1455 92.2226 48.4259L92.1212 48.9357L93.3218 48.9357ZM40.104 35.4857L40.4379 35.4869L40.7034 35.3962L40.9688 35.3056L41.2037 35.0668L41.4387 34.828L41.5624 34.5098L41.6862 34.1916L41.6906 33.7231L41.695 33.2546L41.585 33.0717L41.475 32.8887L41.2835 32.7699L41.092 32.6511H40.6785L40.265 32.6511L39.9835 32.7774L39.702 32.9037L39.5386 33.0791L39.3752 33.2546L39.2469 33.5577L39.1185 33.8609L39.0943 34.3331L39.07 34.8053L39.1895 35.04L39.309 35.2747L39.5395 35.3796L39.77 35.4845L40.104 35.4857Z" fill="#B3131B"/>
</svg>
