<svg width="133" height="84" viewBox="0 0 133 84" fill="none" xmlns="http://www.w3.org/2000/svg">
<rect width="133" height="84" rx="8" fill="white"/>
<g clip-path="url(#clip0_1_134)">
<path d="M106.73 60.9334C106.73 67.9831 101.123 73.7236 94.2381 73.7236H26.27V23.0666C26.27 16.0169 31.8766 10.2765 38.762 10.2765H106.73V60.9334Z" fill="white"/>
<path d="M84.5986 47.9419H89.7626C89.9101 47.9419 90.2544 47.8915 90.4019 47.8915C91.3856 47.6901 92.2216 46.7837 92.2216 45.5248C92.2216 44.3163 91.3856 43.4099 90.4019 43.1582C90.2544 43.1078 89.9593 43.1078 89.7626 43.1078H84.5986V47.9419Z" fill="url(#paint0_linear_1_134)"/>
<path d="M89.1724 14.5566C84.2543 14.5566 80.2215 18.6354 80.2215 23.7212V33.2383H92.861C93.1561 33.2383 93.5003 33.2383 93.7462 33.2886C96.5987 33.4397 98.7135 34.9503 98.7135 37.5688C98.7135 39.6333 97.2873 41.3957 94.6315 41.7482V41.8489C97.5332 42.0504 99.7463 43.7121 99.7463 46.2802C99.7463 49.0497 97.2873 50.8625 94.0413 50.8625H80.1723V69.4938H93.3036C98.2217 69.4938 102.255 65.415 102.255 60.3292V14.5566H89.1724Z" fill="url(#paint1_linear_1_134)"/>
<path d="M91.5823 38.173C91.5823 36.9645 90.7462 36.1588 89.7626 36.0078C89.6642 36.0078 89.4183 35.9574 89.2708 35.9574H84.5986V40.3887H89.2708C89.4183 40.3887 89.7134 40.3887 89.7626 40.3383C90.7462 40.1872 91.5823 39.3816 91.5823 38.173Z" fill="url(#paint2_linear_1_134)"/>
<path d="M39.6964 14.5566C34.7783 14.5566 30.7455 18.6354 30.7455 23.7212V46.3305C33.2537 47.5894 35.8603 48.3951 38.4669 48.3951C41.5653 48.3951 43.2374 46.4816 43.2374 43.8631V33.1879H50.9097V43.8128C50.9097 47.9419 48.4014 51.3157 39.8931 51.3157C34.7291 51.3157 30.6963 50.1575 30.6963 50.1575V69.4434H43.8276C48.7457 69.4434 52.7785 65.3647 52.7785 60.2788V14.5566H39.6964Z" fill="url(#paint3_linear_1_134)"/>
<path d="M64.4344 14.5566C59.5163 14.5566 55.4835 18.6354 55.4835 23.7212V35.7056C57.7458 33.7418 61.6803 32.4829 68.0246 32.7851C71.4181 32.9361 75.0575 33.8929 75.0575 33.8929V37.7702C73.2378 36.8135 71.0738 35.9574 68.2705 35.756C63.4508 35.4035 60.5491 37.8206 60.5491 42.0504C60.5491 46.3305 63.4508 48.7476 68.2705 48.3447C71.0738 48.1433 73.2378 47.2369 75.0575 46.3305V50.2078C75.0575 50.2078 71.4673 51.1646 68.0246 51.3157C61.6803 51.6178 57.7458 50.3589 55.4835 48.3951V69.5441H68.6148C73.5329 69.5441 77.5657 65.4654 77.5657 60.3795V14.5566H64.4344Z" fill="url(#paint4_linear_1_134)"/>
</g>
<defs>
<linearGradient id="paint0_linear_1_134" x1="80.2133" y1="45.5309" x2="102.314" y2="45.5309" gradientUnits="userSpaceOnUse">
<stop stop-color="#007940"/>
<stop offset="0.2285" stop-color="#00873F"/>
<stop offset="0.7433" stop-color="#40A737"/>
<stop offset="1" stop-color="#5CB531"/>
</linearGradient>
<linearGradient id="paint1_linear_1_134" x1="80.2126" y1="42.0032" x2="102.315" y2="42.0032" gradientUnits="userSpaceOnUse">
<stop stop-color="#007940"/>
<stop offset="0.2285" stop-color="#00873F"/>
<stop offset="0.7433" stop-color="#40A737"/>
<stop offset="1" stop-color="#5CB531"/>
</linearGradient>
<linearGradient id="paint2_linear_1_134" x1="80.2127" y1="38.1667" x2="102.314" y2="38.1667" gradientUnits="userSpaceOnUse">
<stop stop-color="#007940"/>
<stop offset="0.2285" stop-color="#00873F"/>
<stop offset="0.7433" stop-color="#40A737"/>
<stop offset="1" stop-color="#5CB531"/>
</linearGradient>
<linearGradient id="paint3_linear_1_134" x1="30.7351" y1="42.0032" x2="53.1778" y2="42.0032" gradientUnits="userSpaceOnUse">
<stop stop-color="#1F286F"/>
<stop offset="0.4751" stop-color="#004E94"/>
<stop offset="0.8261" stop-color="#0066B1"/>
<stop offset="1" stop-color="#006FBC"/>
</linearGradient>
<linearGradient id="paint4_linear_1_134" x1="55.3563" y1="42.0032" x2="77.1534" y2="42.0032" gradientUnits="userSpaceOnUse">
<stop stop-color="#6C2C2F"/>
<stop offset="0.1735" stop-color="#882730"/>
<stop offset="0.5731" stop-color="#BE1833"/>
<stop offset="0.8585" stop-color="#DC0436"/>
<stop offset="1" stop-color="#E60039"/>
</linearGradient>
<clipPath id="clip0_1_134">
<rect width="81" height="64" fill="white" transform="translate(26 10)"/>
</clipPath>
</defs>
</svg>
