<svg width="133" height="84" viewBox="0 0 133 84" fill="none" xmlns="http://www.w3.org/2000/svg">
<rect width="133" height="84" rx="8" fill="white"/>
<g clip-path="url(#clip0_1_121)">
<path d="M43.5496 69.8773V66.1608C43.5496 64.7392 42.6849 63.8082 41.2006 63.8082C40.4584 63.8082 39.6513 64.0536 39.0965 64.8618C38.6641 64.1835 38.0444 63.8082 37.1149 63.8082C36.4952 63.8082 35.8755 63.9959 35.3855 64.6742V63.9309H34.0885V69.8773H35.3855V66.5938C35.3855 65.5402 35.9404 65.0423 36.805 65.0423C37.6697 65.0423 38.1021 65.5979 38.1021 66.5938V69.8773H39.3991V66.5938C39.3991 65.5402 40.0188 65.0423 40.8187 65.0423C41.6833 65.0423 42.1157 65.5979 42.1157 66.5938V69.8773H43.5496ZM62.789 63.9309H60.6849V62.134H59.3879V63.9309H58.2134V65.1072H59.3879V67.835C59.3879 69.199 59.9428 70 61.4271 70C61.982 70 62.6017 69.8124 63.034 69.567L62.6593 68.4484C62.2846 68.6938 61.8523 68.7588 61.5424 68.7588C60.9227 68.7588 60.6777 68.3835 60.6777 67.7701V65.1072H62.7818V63.9309H62.789ZM73.7994 63.801C73.0572 63.801 72.5601 64.1763 72.2502 64.667V63.9237H70.9532V69.8701H72.2502V66.5216C72.2502 65.533 72.6825 64.9701 73.4896 64.9701C73.7346 64.9701 74.0444 65.035 74.2966 65.0928L74.6713 63.8515C74.4119 63.801 74.0444 63.801 73.7994 63.801ZM57.1613 64.4216C56.5416 63.9886 55.6769 63.801 54.7474 63.801C53.263 63.801 52.2758 64.5443 52.2758 65.7206C52.2758 66.7093 53.018 67.2722 54.3151 67.4526L54.9347 67.5175C55.6121 67.6402 55.9868 67.8278 55.9868 68.1381C55.9868 68.5711 55.4896 68.8814 54.6249 68.8814C53.7602 68.8814 53.0757 68.5711 52.6433 68.2608L52.0236 69.2495C52.701 69.7474 53.6305 69.9928 54.56 69.9928C56.2894 69.9928 57.2838 69.1845 57.2838 68.0732C57.2838 67.0196 56.4768 66.4639 55.2446 66.2763L54.6249 66.2113C54.0701 66.1464 53.6377 66.0237 53.6377 65.6557C53.6377 65.2227 54.0701 64.9773 54.7546 64.9773C55.4968 64.9773 56.239 65.2876 56.6137 65.4752L57.1613 64.4216ZM91.6697 63.801C90.9275 63.801 90.4303 64.1763 90.1205 64.667V63.9237H88.8235V69.8701H90.1205V66.5216C90.1205 65.533 90.5528 64.9701 91.3599 64.9701C91.6049 64.9701 91.9147 65.035 92.1669 65.0928L92.5416 63.866C92.2894 63.801 91.9219 63.801 91.6697 63.801ZM75.0965 66.9041C75.0965 68.701 76.3359 70 78.2526 70C79.1173 70 79.737 69.8124 80.3567 69.3216L79.737 68.268C79.2398 68.6433 78.7498 68.8237 78.1878 68.8237C77.1357 68.8237 76.3935 68.0804 76.3935 66.9041C76.3935 65.7856 77.1357 65.0423 78.1878 64.9845C78.7426 64.9845 79.2398 65.1722 79.737 65.5402L80.3567 64.4866C79.737 63.9886 79.1173 63.8082 78.2526 63.8082C76.3359 63.801 75.0965 65.1072 75.0965 66.9041ZM87.0941 66.9041V63.9309H85.797V64.6742C85.3647 64.1185 84.745 63.8082 83.938 63.8082C82.2662 63.8082 80.9692 65.1072 80.9692 66.9041C80.9692 68.701 82.2662 70 83.938 70C84.8026 70 85.4223 69.6897 85.797 69.134V69.8773H87.0941V66.9041ZM82.3311 66.9041C82.3311 65.8505 83.0084 64.9845 84.1253 64.9845C85.1773 64.9845 85.9195 65.7928 85.9195 66.9041C85.9195 67.9577 85.1773 68.8237 84.1253 68.8237C83.0156 68.7588 82.3311 67.9505 82.3311 66.9041ZM66.8098 63.801C65.0805 63.801 63.8411 65.0423 63.8411 66.8969C63.8411 68.7588 65.0805 69.9928 66.8747 69.9928C67.7394 69.9928 68.6041 69.7474 69.2886 69.1845L68.6689 68.2536C68.1717 68.6289 67.552 68.8742 66.9396 68.8742C66.1325 68.8742 65.3327 68.499 65.1453 67.4526H69.5336C69.5336 67.2649 69.5336 67.1423 69.5336 66.9546C69.5913 65.0423 68.4744 63.801 66.8098 63.801ZM66.8098 64.9196C67.6169 64.9196 68.1717 65.4175 68.2942 66.3412H65.203C65.3255 65.5402 65.8803 64.9196 66.8098 64.9196ZM99.034 66.9041V61.5783H97.737V64.6742C97.3046 64.1185 96.685 63.8082 95.8779 63.8082C94.2062 63.8082 92.9091 65.1072 92.9091 66.9041C92.9091 68.701 94.2062 70 95.8779 70C96.7426 70 97.3623 69.6897 97.737 69.134V69.8773H99.034V66.9041ZM94.271 66.9041C94.271 65.8505 94.9484 64.9845 96.0653 64.9845C97.1173 64.9845 97.8595 65.7928 97.8595 66.9041C97.8595 67.9577 97.1173 68.8237 96.0653 68.8237C94.9484 68.7588 94.271 67.9505 94.271 66.9041ZM50.8491 66.9041V63.9309H49.552V64.6742C49.1197 64.1185 48.5 63.8082 47.693 63.8082C46.0212 63.8082 44.7242 65.1072 44.7242 66.9041C44.7242 68.701 46.0212 70 47.693 70C48.5576 70 49.1773 69.6897 49.552 69.134V69.8773H50.8491V66.9041ZM46.0284 66.9041C46.0284 65.8505 46.7058 64.9845 47.8227 64.9845C48.8747 64.9845 49.6169 65.7928 49.6169 66.9041C49.6169 67.9577 48.8747 68.8237 47.8227 68.8237C46.7058 68.7588 46.0284 67.9505 46.0284 66.9041Z" fill="black"/>
<path d="M76.2134 18.7701H56.729V53.8278H76.2134V18.7701Z" fill="#FF5A00"/>
<path d="M58.026 36.299C58.026 29.1763 61.3695 22.8546 66.5 18.7701C62.7242 15.7969 57.9612 14 52.7658 14C40.4584 14 30.5 23.9732 30.5 36.299C30.5 48.6247 40.4584 58.5979 52.7658 58.5979C57.9612 58.5979 62.7242 56.801 66.5 53.8278C61.3623 49.801 58.026 43.4217 58.026 36.299Z" fill="#EB001B"/>
<path d="M102.5 36.299C102.5 48.6247 92.5416 58.5979 80.2342 58.5979C75.0388 58.5979 70.2758 56.801 66.5 53.8278C71.6954 49.7361 74.974 43.4217 74.974 36.299C74.974 29.1763 71.6305 22.8546 66.5 18.7701C70.2686 15.7969 75.0316 14 80.227 14C92.5416 14 102.5 24.0381 102.5 36.299Z" fill="#F79E1B"/>
</g>
<defs>
<clipPath id="clip0_1_121">
<rect width="72" height="56" fill="white" transform="translate(30.5 14)"/>
</clipPath>
</defs>
</svg>
