<svg width="133" height="84" viewBox="0 0 133 84" fill="none" xmlns="http://www.w3.org/2000/svg">
<rect width="133" height="84" rx="8" fill="white"/>
<g clip-path="url(#clip0_1_103)">
<path d="M38.4838 13.0004H61.4042C64.6037 13.0004 66.5936 15.6309 65.8473 18.8689L55.1762 65.0825C54.4231 68.3092 51.2197 70.942 48.018 70.942H25.0998C21.9048 70.942 19.9103 68.3092 20.6567 65.0825L31.3323 18.8689C32.0786 15.6309 35.2804 13.0004 38.4838 13.0004Z" fill="#E21836"/>
<path d="M59.497 13.0002H85.8549C89.0538 13.0002 87.6113 15.6308 86.8588 18.8688L76.1894 65.0823C75.4408 68.3091 75.6743 70.9419 72.4687 70.9419H46.1107C42.9051 70.9419 40.9213 68.3091 41.6744 65.0823L52.3432 18.8688C53.1008 15.6308 56.2958 13.0002 59.497 13.0002Z" fill="#00447C"/>
<path d="M84.8094 13.0002H107.73C110.934 13.0002 112.924 15.6308 112.171 18.8688L101.502 65.0823C100.749 68.3091 97.5431 70.9419 94.3397 70.9419H71.4298C68.2242 70.9419 66.2359 68.3091 66.9868 65.0823L77.6579 18.8688C78.4042 15.6308 81.6037 13.0002 84.8094 13.0002Z" fill="#007B84"/>
<path d="M44.4697 27.8104C42.1127 27.8346 41.4166 27.8104 41.1942 27.7574C41.1088 28.1671 39.5182 35.5678 39.5138 35.574C39.1713 37.0713 38.9221 38.1386 38.0758 38.8278C37.5953 39.2285 37.0344 39.4218 36.3841 39.4218C35.3389 39.4218 34.7299 38.8983 34.6277 37.9053L34.6081 37.5644C34.6081 37.5644 34.9266 35.5588 34.9266 35.5476C34.9266 35.5476 36.5959 28.8033 36.8947 27.9118C36.9104 27.8611 36.9149 27.8346 36.9188 27.8104C33.6696 27.8391 33.0936 27.8104 33.0539 27.7574C33.0321 27.8301 32.9517 28.2482 32.9517 28.2482L31.2472 35.8496L31.1008 36.4943L30.8176 38.603C30.8176 39.2285 30.9394 39.7391 31.1818 40.1707C31.9584 41.5395 34.1735 41.7446 35.4266 41.7446C37.0411 41.7446 38.5557 41.3986 39.5791 40.7669C41.3557 39.7081 41.8205 38.053 42.235 36.5822L42.4272 35.8276C42.4272 35.8276 44.1468 28.823 44.439 27.9118C44.4502 27.8611 44.4546 27.8346 44.4697 27.8104ZM50.3205 33.461C49.9059 33.461 49.1484 33.5625 48.4679 33.8989C48.221 34.0268 47.9875 34.1745 47.7411 34.3215L47.9634 33.5118L47.8417 33.3754C46.3986 33.6701 46.0757 33.7096 44.7427 33.8989L44.631 33.9739C44.4762 35.2683 44.3388 36.2415 43.7651 38.7858C43.5466 39.7235 43.3198 40.6702 43.0924 41.6057L43.1539 41.7246C44.5198 41.6519 44.9344 41.6519 46.1215 41.6716L46.2176 41.5662C46.3685 40.7869 46.388 40.6043 46.7221 39.0259C46.8791 38.2775 47.2065 36.6331 47.3679 36.0476C47.6646 35.909 47.9573 35.7726 48.2366 35.7726C48.902 35.7726 48.821 36.3581 48.7953 36.5914C48.7668 36.9831 48.5243 38.2623 48.2757 39.3606L48.1098 40.0695C47.9942 40.593 47.8674 41.1019 47.7517 41.6209L47.802 41.7246C49.1484 41.6519 49.559 41.6519 50.7087 41.6716L50.8439 41.5662C51.0518 40.349 51.1126 40.0233 51.4814 38.251L51.6668 37.4367C52.0272 35.8431 52.2082 35.035 51.9356 34.3768C51.6473 33.6391 50.9557 33.461 50.3205 33.461ZM56.8564 35.1296C56.1408 35.2682 55.6843 35.3606 55.2307 35.4204C54.781 35.4931 54.3424 35.559 53.6508 35.6559L53.596 35.7061L53.5458 35.7461C53.4737 36.2657 53.4234 36.7148 53.3279 37.2428C53.2469 37.7889 53.1223 38.4093 52.9195 39.3008C52.7625 39.9832 52.6815 40.221 52.5921 40.4611C52.505 40.7012 52.4089 40.9345 52.2323 41.6056L52.2737 41.6676L52.3083 41.7245C52.9547 41.6935 53.3776 41.6715 53.8122 41.6676C54.2463 41.6518 54.6961 41.6676 55.3922 41.6715L55.453 41.6214L55.5184 41.5662C55.619 40.9609 55.6341 40.7981 55.6955 40.5028C55.7564 40.1861 55.8614 39.7477 56.119 38.5767C56.2408 38.0267 56.3765 37.4784 56.5028 36.9171C56.6341 36.3581 56.7715 35.8075 56.9022 35.2575L56.8827 35.191L56.8564 35.1296ZM56.8717 32.8799C56.2214 32.4927 55.08 32.6156 54.3119 33.1504C53.5459 33.6745 53.4588 34.4183 54.1068 34.8105C54.7459 35.187 55.8918 35.0748 56.6532 34.5355C57.4175 34.0002 57.513 33.2631 56.8717 32.8799ZM60.8044 41.8458C62.1201 41.8458 63.4687 41.4801 64.4838 40.3948C65.2648 39.5145 65.6229 38.2049 65.7469 37.6656C66.1508 35.8781 65.8363 35.0435 65.4413 34.5352C64.8413 33.7604 63.781 33.5119 62.681 33.5119C62.0195 33.5119 60.4441 33.5778 59.2133 34.7223C58.3295 35.5479 57.9211 36.6682 57.6747 37.7423C57.4261 38.8366 57.1401 40.8067 58.9362 41.5399C59.4904 41.7799 60.2893 41.8458 60.8044 41.8458ZM60.7016 37.824C61.005 36.4704 61.3631 35.3343 62.277 35.3343C62.9933 35.3343 63.0452 36.1796 62.7268 37.5377C62.6698 37.8392 62.4083 38.96 62.0547 39.4373C61.8078 39.7895 61.5156 40.0031 61.1927 40.0031C61.0966 40.0031 60.5251 40.0031 60.5161 39.1471C60.5117 38.7245 60.5971 38.2928 60.7016 37.824ZM69.0358 41.6718L69.1386 41.5664C69.2844 40.787 69.3084 40.6039 69.6313 39.026C69.7928 38.2777 70.1269 36.6333 70.2839 36.0478C70.5811 35.9086 70.8688 35.7722 71.1571 35.7722C71.818 35.7722 71.7375 36.3577 71.7113 36.591C71.6872 36.9832 71.4448 38.2619 71.1917 39.3602L71.0347 40.0691C70.9146 40.5932 70.7839 41.1015 70.6682 41.6211L70.7185 41.7247C72.0694 41.652 72.4643 41.652 73.6208 41.6718L73.7604 41.5664C73.9632 40.3486 74.018 40.0229 74.3979 38.2512L74.5789 37.4363C74.9409 35.8427 75.1242 35.0351 74.856 34.3769C74.5593 33.6393 73.8632 33.4612 73.237 33.4612C72.8219 33.4612 72.0604 33.5621 71.3839 33.8991C71.142 34.027 70.8995 34.1741 70.6615 34.3217L70.8688 33.5119L70.7576 33.375C69.3151 33.6703 68.9855 33.7097 67.6542 33.8991L67.552 33.974C67.3905 35.2684 67.2592 36.2411 66.6855 38.786C66.4671 39.7237 66.2402 40.6704 66.0134 41.6058L66.0743 41.7247C67.4425 41.652 67.8509 41.652 69.0358 41.6718ZM78.9608 41.7245C79.0457 41.3063 79.5502 38.8279 79.5547 38.8279C79.5547 38.8279 79.9843 37.0095 80.0105 36.9435C80.0105 36.9435 80.1457 36.7542 80.2809 36.6792H80.4798C82.3564 36.6792 84.4754 36.6792 86.1363 35.4468C87.2665 34.6015 88.0391 33.3533 88.3838 31.8363C88.4732 31.4644 88.5391 31.022 88.5391 30.5796C88.5391 29.9986 88.4235 29.4238 88.0894 28.9747C87.2425 27.7795 85.5559 27.7575 83.6089 27.7485C83.6028 27.7485 82.6491 27.7575 82.6491 27.7575C80.1569 27.7885 79.1575 27.7795 78.7468 27.7288C78.7122 27.9119 78.6468 28.2376 78.6468 28.2376C78.6468 28.2376 77.7541 32.4111 77.7541 32.4178C77.7541 32.4178 75.6177 41.2911 75.5172 41.7092C77.6932 41.6828 78.5854 41.6828 78.9608 41.7245ZM80.615 34.3107C80.615 34.3107 81.5642 30.1457 81.5597 30.1615L81.5904 29.9479L81.6039 29.7851L81.9832 29.8245C81.9832 29.8245 83.9408 29.9941 83.9866 29.9986C84.7592 30.3001 85.0776 31.0772 84.8553 32.0916C84.6525 33.0186 84.0564 33.7979 83.2905 34.1744C82.6597 34.4933 81.8871 34.5198 81.091 34.5198H80.5759L80.615 34.3107ZM86.5248 37.9011C86.274 38.9797 85.9857 40.9498 87.7729 41.6519C88.3427 41.8965 88.8533 41.9692 89.3723 41.9427C89.9204 41.9128 90.4282 41.6356 90.8986 41.2366C90.8562 41.4006 90.8137 41.5646 90.7712 41.7291L90.8522 41.8345C92.1377 41.7799 92.5366 41.7799 93.9294 41.7906L94.0556 41.6936C94.259 40.4877 94.4506 39.3167 94.9791 37.0096C95.2367 35.9045 95.4937 34.8102 95.7579 33.7096L95.7166 33.5885C94.2785 33.8573 93.8942 33.9147 92.5109 34.1125L92.4059 34.1988C92.3919 34.3109 92.3774 34.4185 92.364 34.5262C92.1489 34.1757 91.8372 33.8764 91.3562 33.6899C90.7411 33.4459 89.2964 33.7603 88.0544 34.9009C87.1818 35.7152 86.7628 36.831 86.5248 37.9011ZM89.545 37.967C89.8528 36.6377 90.2064 35.5129 91.1226 35.5129C91.702 35.5129 92.007 36.0522 91.945 36.9719C91.8958 37.2012 91.8428 37.443 91.7796 37.7163C91.688 38.1113 91.5886 38.503 91.4919 38.8952C91.3936 39.1634 91.2791 39.4164 91.1534 39.5849C90.9176 39.9219 90.3567 40.131 90.0338 40.131C89.9422 40.131 89.3768 40.131 89.3573 39.2902C89.3528 38.8715 89.4383 38.4404 89.545 37.967ZM105.316 33.5777L105.205 33.4498C103.782 33.7406 103.525 33.7868 102.217 33.9648L102.121 34.0618C102.117 34.0775 102.113 34.1018 102.106 34.1238L102.102 34.1018C101.129 36.3666 101.157 35.878 100.365 37.661C100.36 37.5799 100.36 37.5291 100.356 37.4429L100.158 33.5777L100.033 33.4498C98.5426 33.7406 98.5074 33.7868 97.1308 33.9648L97.0236 34.0618C97.0085 34.108 97.0085 34.1587 96.9995 34.2139L97.0085 34.2336C97.1805 35.1206 97.1392 34.9228 97.3118 36.3226C97.3923 37.0096 97.4995 37.7004 97.58 38.3789C97.7158 39.5144 97.7917 40.0734 97.9577 41.8063C97.028 43.3537 96.8079 43.9392 95.9129 45.2973L95.9191 45.3108L95.2889 46.3162C95.2168 46.4221 95.1515 46.4948 95.0599 46.5258C94.9593 46.576 94.8286 46.585 94.647 46.585H94.2978L93.7788 48.3263L95.5593 48.3573C96.6046 48.3528 97.2616 47.8597 97.6152 47.197L98.7348 45.2618H98.7169L98.8348 45.1254C99.5878 43.4901 105.316 33.5777 105.316 33.5777ZM86.5248 56.4469H85.7694L88.565 47.12H89.4924L89.7868 46.1592L89.8153 47.2277C89.7807 47.8881 90.2958 48.4736 91.6489 48.3767H93.2137L93.7522 46.5808H93.1634C92.8248 46.5808 92.6679 46.4945 92.6874 46.3097L92.6589 45.2227H89.7611V45.2283C88.8242 45.248 86.0264 45.319 85.4599 45.4712C84.7745 45.6492 84.0521 46.1733 84.0521 46.1733L84.3359 45.2114H81.6252L81.0604 47.12L78.2274 56.5895H77.6777L77.1386 58.3725H82.5376L82.3565 58.967H85.0169L85.1935 58.3725H85.9398L86.5248 56.4469ZM84.3096 49.0152C83.8756 49.1363 83.0677 49.5038 83.0677 49.5038L83.7862 47.12H85.9398L85.4203 48.8568C85.4203 48.8568 84.7549 48.8963 84.3096 49.0152ZM84.351 52.4206C84.351 52.4206 83.6744 52.5062 83.2292 52.6076C82.7906 52.7418 81.9683 53.1644 81.9683 53.1644L82.7102 50.6838H84.875L84.351 52.4206ZM83.1443 56.4689H80.9839L81.6102 54.3754H83.7638L83.1443 56.4689ZM88.3469 50.6838H91.4609L91.0134 52.1456H87.8581L87.3843 53.7437H90.1453L88.0547 56.7129C87.9084 56.931 87.7771 57.0082 87.6313 57.0696C87.4849 57.1446 87.2927 57.2325 87.0704 57.2325H86.3044L85.7782 58.9828H87.7815C88.8229 58.9828 89.438 58.5049 89.8922 57.8777L91.3257 55.8986L91.6335 57.9082C91.6989 58.2846 91.9671 58.5049 92.1486 58.5906C92.3492 58.692 92.5565 58.8662 92.8492 58.8921C93.1632 58.9056 93.39 58.9163 93.5408 58.9163H94.5252L95.1163 56.9575H94.728C94.5051 56.9575 94.1213 56.9197 94.0559 56.8493C93.9906 56.7636 93.9906 56.6318 93.9554 56.4312L93.6431 54.4171H92.3643L92.9252 53.7437H96.0744L96.5588 52.1456H93.6431L94.0973 50.6838H97.004L97.5431 48.8811H88.8771L88.3469 50.6838ZM62.0459 56.876L62.7727 54.437H65.7599L66.3057 52.623H63.3157L63.7722 51.1218H66.694L67.2353 49.3653H59.9246L59.3944 51.1218H61.0554L60.6123 52.623H58.9469L58.395 54.468H60.0553L59.0866 57.6948C58.9559 58.1219 59.1481 58.2848 59.2699 58.4831C59.3944 58.6764 59.5207 58.8043 59.8045 58.877C60.0972 58.943 60.2978 58.9824 60.5704 58.9824H63.9381L64.5381 56.9729L63.0453 57.1797C62.7571 57.1797 61.9587 57.1448 62.0459 56.876ZM62.3885 45.2004L61.6315 46.5805C61.4695 46.882 61.3237 47.069 61.1924 47.1553C61.0768 47.228 60.8477 47.2584 60.5158 47.2584H60.1209L59.5929 49.0239H60.9047C61.5354 49.0239 62.0198 48.7906 62.2511 48.674C62.4997 48.5398 62.565 48.6165 62.7572 48.4294L63.2002 48.0423H67.2964L67.84 46.204H64.8416L65.3651 45.2004H62.3885ZM68.4357 56.9114C68.3659 56.81 68.4162 56.6313 68.5229 56.2594L69.6425 52.5215H73.6252C74.2057 52.5131 74.6247 52.5063 74.8973 52.4866C75.19 52.4556 75.5085 52.3502 75.8554 52.1609C76.2135 51.9625 76.3967 51.7535 76.5515 51.5134C76.7241 51.2739 77.0012 50.7498 77.2392 49.9417L78.6465 45.2115L74.5135 45.2357C74.5135 45.2357 73.2408 45.4251 72.6805 45.6341C72.1151 45.8674 71.3073 46.5189 71.3073 46.5189L71.6805 45.2222H69.1274L65.553 57.1796C65.4262 57.644 65.3413 57.981 65.3217 58.1833C65.315 58.4014 65.5944 58.6172 65.7754 58.7801C65.9893 58.9429 66.3055 58.9164 66.6089 58.9429C66.9279 58.9671 67.3815 58.9824 68.0078 58.9824H69.9698L70.5721 56.9311L68.8156 57.0985C68.6279 57.0985 68.4922 56.9971 68.4357 56.9114ZM70.3648 49.9969H74.5481L74.2822 50.8377C74.2448 50.8575 74.1554 50.796 73.7297 50.8467H70.1073L70.3648 49.9969ZM71.2028 47.1771H75.4213L75.118 48.1897C75.118 48.1897 73.1297 48.17 72.8112 48.2292C71.4101 48.4737 70.5916 49.2289 70.5916 49.2289L71.2028 47.1771ZM74.3758 53.6533C74.3412 53.7789 74.2864 53.8556 74.2099 53.9131C74.125 53.9683 73.9875 53.988 73.7825 53.988H73.1864L73.2216 52.9641H70.7422L70.6417 57.9699C70.6378 58.3311 70.6724 58.5402 70.9344 58.7075C71.1964 58.9166 72.0037 58.9431 73.0903 58.9431H74.644L75.2049 57.0694L73.8523 57.1443L73.4026 57.1708C73.3412 57.1443 73.2825 57.1201 73.2171 57.0541C73.1602 56.9972 73.0641 57.0322 73.0797 56.6709L73.0903 55.3878L74.5088 55.3286C75.2747 55.3286 75.6021 55.0773 75.8814 54.8378C76.1479 54.6084 76.2351 54.3447 76.3356 53.988L76.5736 52.8519H74.6244L74.3758 53.6533Z" fill="#FEFEFE"/>
</g>
<defs>
<clipPath id="clip0_1_103">
<rect width="92" height="58" fill="white" transform="translate(20.5 13)"/>
</clipPath>
</defs>
</svg>
